<svg width="954" height="959" viewBox="0 0 954 959" fill="none" xmlns="http://www.w3.org/2000/svg">
<path d="M583.914 93.9976C583.914 93.9976 552.165 62.2076 516.961 62.2076C481.764 62.2076 425.993 75.0961 404.514 81.9448C383.041 88.8281 379.62 99.1394 372.751 103.424C365.895 107.709 349.579 122.305 339.282 122.305C339.282 122.305 295.508 136.044 264.581 146.348C233.69 156.638 147.849 197.841 128.955 197.841C110.074 197.841 0.184082 306.003 0.184082 366.094C0.184082 426.184 34.5244 503.448 80.8827 520.608C127.241 537.788 149.563 551.513 170.158 556.669C190.759 561.811 237.125 568.673 237.125 568.673C237.125 568.673 226.247 603.594 218.244 633.338C210.22 663.111 191.92 721.494 187.332 734.093C182.763 746.671 177.027 761.529 177.027 761.529C177.027 761.529 167.863 756.975 155.285 784.439C142.694 811.902 123.24 854.259 148.423 856.54C173.6 858.841 211.374 861.108 217.104 858.841C222.819 856.54 162.148 928.669 189.619 940.093C217.104 951.544 297.222 954.965 313.234 957.26C329.261 959.561 456.318 961.855 456.318 948.117C456.318 934.385 437.99 922.919 423.118 922.919C408.232 922.919 373.891 910.341 361.314 903.479C348.715 896.609 362.44 889.726 353.304 882.864C344.147 876.008 341.846 874.861 337.277 874.861C332.709 874.861 337.277 848.524 339.565 842.815C341.852 837.093 339.565 830.223 339.565 830.223C339.565 830.223 376.2 769.58 381.908 761.536C387.651 753.547 387.651 753.547 387.651 753.547C387.651 753.547 423.131 713.47 428.861 700.899C434.576 688.315 444.887 687.168 451.743 678.004C458.612 668.833 470.07 649.393 470.07 644.797C470.07 640.236 472.358 629.925 472.358 629.925C472.358 629.925 487.223 631.065 491.812 627.637C496.38 624.209 491.812 615.059 502.089 615.059C512.407 615.059 533.001 584.14 530.721 549.806C528.454 515.48 507.825 468.555 507.825 468.555C507.825 468.555 552.462 491.437 557.051 500.601C561.619 509.758 602.836 599.026 607.432 602.447C611.993 605.882 624.591 634.5 628.033 645.965C631.461 657.382 679.526 704.32 696.693 719.213C713.859 734.106 735.601 748.979 735.601 748.979C735.601 748.979 765.373 774.155 769.941 774.155C774.53 774.155 774.53 774.155 774.53 774.155C774.53 774.155 789.41 794.756 810.011 797.044C830.605 799.338 844.338 786.74 858.076 805.061C871.801 823.375 915.312 888.606 938.215 823.374C961.097 758.135 939.342 752.414 939.342 752.414V744.39C939.342 744.39 954.221 743.249 940.496 732.952C926.757 722.655 902.714 716.912 886.687 719.22C870.661 721.515 842.05 726.083 828.311 726.083C814.586 726.083 805.429 727.23 805.429 727.23C805.429 727.23 788.262 710.077 781.386 706.642C774.537 703.194 774.537 703.194 774.537 703.194C774.537 703.194 748.207 666.559 739.05 644.817C729.9 623.062 710.425 583.02 701.268 569.288C692.111 555.549 681.827 545.245 681.827 539.509C681.827 533.808 694.412 530.352 694.412 525.784C694.412 521.209 693.272 508.631 693.272 508.631C693.272 508.631 709.278 504.036 689.844 483.434C670.376 462.833 663.5 457.104 660.072 457.104C656.623 457.104 656.623 457.104 656.623 457.104L657.784 450.241C657.784 450.241 695.553 410.185 700.121 398.748C704.709 387.303 721.869 372.41 720.729 344.933C719.575 317.476 748.2 328.927 781.372 289.998C814.572 251.083 811.144 244.22 811.144 244.22L785.961 217.889C785.961 217.889 774.523 191.552 783.68 193.86C792.83 196.148 816.86 204.151 816.86 207.592C816.86 211.041 819.161 219.043 822.589 219.043C826.01 219.043 831.76 190.405 831.76 175.539C831.76 160.66 828.297 153.798 828.297 153.798C828.297 153.798 845.485 106.866 824.869 74.8062C804.275 42.7603 766.493 0.410156 695.546 0.410156C624.578 0.410156 611.979 34.7505 605.11 46.2088C598.24 57.6602 583.914 93.9976 583.914 93.9976Z" fill="black"/>
<path d="M725.276 320.897C725.276 320.897 720.708 304.891 718.406 301.449C716.119 298.001 734.412 278.554 734.412 278.554C734.412 278.554 766.472 294.58 753.88 303.744C741.309 312.894 725.276 320.897 725.276 320.897Z" fill="white"/>
<path d="M758.456 286.564L740.148 268.263C740.148 268.263 749.306 269.411 751.607 265.976C753.887 262.527 752.768 255.665 756.196 255.665C759.617 255.665 761.918 239.652 767.633 241.933C773.362 244.227 785.94 256.812 785.94 256.812L758.456 286.564Z" fill="white"/>
<path d="M764.205 294.587L793.943 263.66L790.536 260.247L763.065 289.998L764.205 294.587Z" fill="white"/>
<path d="M789.389 243.094L783.667 237.344L784.807 233.93L792.816 239.645L789.389 243.094Z" fill="white"/>
<path d="M795.104 252.223L798.546 243.094L803.114 246.515L800.812 255.658L795.104 252.223Z" fill="white"/>
<path d="M796.265 792.476C796.265 792.476 776.79 835.966 779.078 868.012C781.359 900.072 780.239 914.944 791.676 921.807C803.114 928.669 864.925 929.83 880.952 917.225C896.978 904.64 949.632 866.872 953.06 808.495C956.502 750.112 945.043 744.404 945.043 744.404C945.043 744.404 932.445 739.815 911.864 742.109C891.256 744.404 885.52 745.544 894.684 748.993C903.854 752.407 929.024 767.299 933.606 771.881C938.195 776.449 945.043 789.048 942.763 794.777C940.475 800.5 933.606 803.934 929.024 797.058C924.435 790.202 910.71 779.884 904.995 777.604C899.265 775.309 932.445 801.646 929.024 818.82C925.596 835.959 921.007 824.522 911.871 816.519C902.721 808.509 887.828 794.777 879.818 790.202C871.802 785.606 871.801 785.606 871.801 785.606C871.801 785.606 890.115 818.82 896.992 827.956C903.861 837.12 899.272 846.263 891.263 842.842C883.246 839.408 860.35 795.918 845.485 794.777C830.599 793.637 817.993 799.352 809.997 797.058C801.953 794.763 796.265 792.476 796.265 792.476Z" fill="#FF4000"/>
</svg>
