<svg width="915" height="1128" viewBox="0 0 915 1128" fill="none" xmlns="http://www.w3.org/2000/svg">
<path d="M643.426 152.196C643.426 152.196 634.939 153.129 633.045 149.363C631.166 145.589 624.103 145.126 620.785 145.126C617.489 145.126 608.055 143.703 602.395 143.703C596.728 143.703 593.881 143.702 588.228 141.339C582.561 138.982 570.281 137.103 565.567 138.029C560.847 138.982 554.71 136.612 541.974 139.452C529.23 142.272 516.963 143.696 506.119 158.333C495.249 172.956 498.082 181.92 491.952 193.247C485.808 204.581 475.905 217.318 476.361 230.538C476.852 243.752 482.526 252.708 483.915 258.852C485.352 264.989 483.915 270.642 485.352 272.536C486.762 274.415 463.638 316.89 450.425 352.75C437.211 388.611 432.968 401.832 432.968 401.832C432.968 401.832 414.073 420.236 407.487 429.206C400.873 438.176 396.153 442.419 386.706 445.723C377.293 449.033 370.659 458.93 365.483 462.717C360.279 466.483 360.749 470.27 363.603 470.27C366.423 470.27 336.699 528.308 326.775 542.005C316.885 555.682 314.985 562.759 314.052 567.009C313.084 571.26 304.604 587.79 290.437 609.96C276.29 632.131 274.867 641.564 274.39 642.988C273.934 644.404 252.69 676.969 245.62 704.813C238.536 732.65 231.936 747.757 225.806 755.781C219.663 763.791 211.639 776.534 209.268 782.671C206.926 788.815 202.669 792.104 198.425 792.104C194.175 792.104 195.115 796.838 195.599 798.248C196.069 799.651 196.566 801.075 196.566 801.075C196.566 801.075 193.719 805.332 190.865 807.219C188.052 809.098 186.642 810.515 186.642 810.515C186.642 810.515 178.605 806.749 152.647 834.593C126.69 862.43 113.02 902.071 105.474 917.164C97.9201 932.271 87.5398 958.229 85.6462 964.359C83.7457 970.502 74.7823 980.882 70.069 993.142C65.3489 1005.41 58.749 1017.68 53.0889 1021.46C47.422 1025.24 41.2921 1040.34 38.9217 1044.59C36.5651 1048.83 28.0647 1059.69 23.8214 1064.41C19.585 1069.14 12.0106 1080.93 8.71408 1086.12C5.40376 1091.31 -5.44651 1101.22 4.46373 1113.03C14.3878 1124.82 51.6723 1133.79 65.349 1122.46C79.0395 1111.14 84.7271 1102.64 87.0491 1097.92C89.4265 1093.21 110.187 1050.25 113.953 1041.75C117.741 1033.27 130 1012.51 133.318 1009.2C136.607 1005.89 149.358 997.407 152.654 993.15C155.965 988.906 185.682 957.766 193.726 950.689C201.743 943.619 220.361 922.389 224.853 915.754C233.83 902.54 233.367 882.727 241.377 876.113C241.377 876.113 245.164 875.657 245.634 873.28C246.09 870.93 248.93 869.044 252.704 865.277C256.47 861.483 261.681 856.776 261.681 856.776C261.681 856.776 263.561 859.596 269.691 854.413C275.828 849.216 304.618 817.129 310.265 810.515C315.945 803.915 356.036 752.954 360.293 748.697C364.55 744.454 368.786 743.514 370.673 740.68C372.566 737.861 386.72 718.496 390.5 713.313C394.273 708.116 423.548 673.189 423.548 675.552C423.548 677.929 424.481 693.009 424.018 701.523C423.548 710.01 425.407 731.717 427.785 739.74C430.148 747.764 437.218 760.508 440.051 761.911C442.864 763.341 445.697 762.864 445.697 762.864C445.697 762.864 451.855 776.541 456.078 778.442C460.321 780.321 461.288 778.442 461.288 778.442C461.288 778.442 465.525 786.935 469.291 786.935C473.079 786.935 478.725 786.458 479.229 782.685C479.685 778.919 479.686 775.138 479.686 775.138C479.686 775.138 484.406 781.275 489.119 779.851C493.818 778.448 494.779 772.781 494.288 767.114C493.818 761.454 489.119 735.013 488.642 726.527C488.172 718.033 488.642 712.373 488.642 712.373C488.642 712.373 505.166 742.111 511.289 743.521C517.433 744.937 523.549 740.687 521.669 732.671C519.789 724.647 514.599 722.297 513.646 715.677C512.713 709.07 508.926 710.017 505.622 699.153C502.312 688.316 492.429 672.732 488.172 668.966C483.915 665.172 476.852 658.579 476.852 658.579C476.852 658.579 476.852 647.722 475.898 645.358C474.965 643.002 472.588 644.888 472.588 644.888V638.288C472.588 638.288 484.399 633.568 490.542 633.568C496.666 633.568 507.046 632.145 515.546 637.348C524.033 642.532 563.211 673.202 591.525 691.15C619.839 709.07 669.397 727.487 680.247 733.611C691.104 739.754 706.204 745.421 713.758 752.491C721.291 759.561 732.618 767.591 732.148 775.138C731.692 782.685 730.261 845.926 737.808 870.937C745.361 895.934 758.098 924.269 762.832 937.938C767.545 951.629 773.669 989.867 775.092 1000.7C776.516 1011.56 781.692 1031.38 777.449 1042.24C773.212 1053.09 773.669 1063.94 774.138 1069.14C774.615 1074.32 767.069 1095.56 773.669 1097.46C780.282 1099.34 802.452 1096.99 809.073 1100.29C815.673 1103.59 858.134 1123.41 869.004 1121.53C879.861 1119.63 906.282 1126.72 911.472 1116.32C916.662 1105.94 915.252 1099.34 906.282 1096.98C897.318 1094.62 881.278 1090.38 880.788 1086.13C880.345 1081.89 885.992 1083.29 886.945 1080.93C887.878 1078.58 877.035 1067.72 872.799 1066.32C868.521 1064.9 865.231 1055.93 859.108 1049.32C852.964 1042.71 844.94 1030.92 842.128 1011.1C839.28 991.276 837.891 969.107 837.891 961.076C837.891 953.053 836.468 951.159 836.468 951.159C836.468 951.159 841.637 917.662 841.181 901.152C840.711 884.621 842.591 856.783 840.213 843.563C837.891 830.356 833.157 801.572 833.157 801.572L832.674 799.209C832.674 799.209 855.334 780.798 858.645 775.145C861.955 769.485 868.534 755.331 869.965 752.014C871.388 748.704 873.275 742.111 871.388 734.087C869.502 726.064 862.888 706.243 862.888 706.243C862.888 706.243 862.418 703.417 870.428 695.863C878.465 688.316 887.436 683.596 881.775 673.202C876.109 662.829 853.939 686.907 853.939 686.907C853.939 686.907 854.409 679.823 854.409 675.559C854.409 671.315 850.138 659.042 847.781 637.348C845.438 615.641 844.484 574.57 842.605 559.013C840.725 543.429 838.824 536.352 838.824 530.216C838.824 524.086 836.944 523.146 836.944 523.146C836.944 523.146 831.748 500.492 826.101 484.922C820.441 469.345 813.821 449.987 813.821 430.173C813.821 410.353 805.804 389.593 805.804 384.872C805.804 380.145 806.274 365.052 806.274 365.052C806.274 365.052 812.397 361.265 813.821 357.498C815.231 353.718 823.268 342.861 827.974 339.088C832.694 335.321 855.825 307.007 857.712 297.09C859.592 287.18 863.379 263.593 865.265 257.449C867.145 251.319 866.212 237.636 863.386 235.279C860.552 232.915 865.265 223.938 860.552 218.748C855.832 213.565 851.596 209.322 851.596 209.322C851.596 209.322 862.909 174.878 860.082 156.467C857.249 138.056 838.382 130.51 833.669 128.623C828.949 126.743 827.525 128.153 827.525 128.153V124.373C827.525 124.373 850.635 120.606 850.635 114.469C850.635 108.332 843.579 106.439 843.579 106.439C843.579 106.439 846.889 104.566 844.982 93.2322C843.102 81.9052 841.216 78.6019 834.588 76.2384C827.988 73.8817 827.988 73.8817 827.988 73.8817C827.988 73.8817 824.201 33.7708 781.284 12.5405C738.326 -8.69674 701.062 2.15338 684.538 12.5405C668.007 22.9207 640.177 49.811 637.814 86.1555C635.457 122.493 641.58 137.123 641.58 137.123C641.58 137.123 639.7 138.056 641.11 142.77C642.492 147.483 643.426 152.196 643.426 152.196Z" fill="black"/>
<path d="M827.788 116.798V111.767C827.788 111.767 830.642 111.131 832.211 111.767C833.793 112.389 837.242 115.222 833.158 115.858C829.053 116.487 827.788 116.798 827.788 116.798Z" fill="white"/>
<path d="M814.906 148.271C814.906 148.271 819.308 146.688 820.234 143.855C821.188 141.021 821.817 135.05 820.87 133.474C819.916 131.892 817.414 130.959 817.414 130.959C817.414 130.959 815.535 136.315 814.27 139.141C812.999 141.975 811.119 143.226 812.059 144.49C813.005 145.748 814.906 148.271 814.906 148.271Z" fill="white"/>
<path d="M827.49 142.604V136.315C827.49 136.315 835.659 138.817 840.372 142.604C845.106 146.37 847.636 146.985 847.304 148.575C846.972 150.15 847.636 153.606 845.424 151.712C843.227 149.833 838.174 146.052 834.726 145.119C831.25 144.173 827.49 142.604 827.49 142.604Z" fill="white"/>
<path d="M826.557 155.81C826.557 155.81 825.286 148.892 828.105 150.475C830.953 152.044 836.295 154.559 836.295 154.559C836.295 154.559 833.793 155.195 830.96 155.195C828.099 155.188 826.557 155.81 826.557 155.81Z" fill="white"/>
<path d="M851.714 183.184L851.396 174.062C851.396 174.062 853.276 172.182 853.276 175.009C853.282 177.836 851.714 183.184 851.714 183.184Z" fill="white"/>
<path d="M851.713 167.449C851.713 167.449 850.442 158.644 852.647 159.902C854.844 161.153 853.282 165.88 853.282 165.88L851.713 167.449Z" fill="white"/>
<path d="M830.006 171.864C830.006 171.864 828.105 163.993 830.006 163.675C831.899 163.35 845.106 161.477 845.106 163.35C845.106 165.251 846.378 170.282 844.775 170.282C843.22 170.282 830.006 171.864 830.006 171.864Z" fill="white"/>
<path d="M831.568 190.414C831.568 190.414 839.121 196.08 840.697 197.027C842.266 197.967 842.266 197.967 842.266 197.967C842.266 197.967 845.1 190.413 845.1 184.76C845.1 179.093 846.371 176.896 843.22 176.896C840.068 176.896 830.939 176.253 830.642 177.518C830.303 178.782 831.907 181.291 831.907 184.435C831.907 187.58 831.568 190.414 831.568 190.414Z" fill="white"/>
<path d="M820.241 184.131L819.923 178.471L814.906 177.2C814.906 177.2 814.27 182.238 815.535 182.556C816.793 182.874 820.241 184.131 820.241 184.131Z" fill="white"/>
<path d="M813.323 169.964C813.323 169.964 815.853 169.646 815.853 168.388C815.853 167.13 815.853 164.304 815.853 164.304C815.853 164.304 819.923 162.417 819.923 164.304C819.923 166.191 820.573 170.911 820.573 170.911C820.573 170.911 818.693 169.957 817.11 169.957C815.535 169.964 813.323 169.964 813.323 169.964Z" fill="white"/>
<path d="M840.372 112.092C840.372 112.092 843.538 111.767 842.584 110.82C841.63 109.867 840.068 108.623 840.068 108.623L840.372 112.092Z" fill="white"/>
<path d="M640.599 503.761C640.599 503.761 667.973 470.733 682.14 459.413C696.308 448.079 715.168 437.699 720.841 433.933C726.501 430.146 739.701 411.272 739.701 411.272C739.701 411.272 748.195 463.18 750.082 469.787C751.982 476.394 756.716 482.993 756.716 494.327C756.716 505.661 757.649 525.475 758.568 533.961C759.536 542.469 769.923 588.716 778.403 605.717C786.896 622.697 803.883 658.558 804.83 664.225C805.783 669.892 812.376 685.925 812.376 685.925C812.376 685.925 809.564 686.893 805.783 678.385C801.996 669.892 765.202 619.864 754.822 610.43C744.435 600.983 711.408 565.123 696.308 554.736C681.194 544.356 671.746 541.522 667.033 535.862C662.32 530.202 654.324 508.75 651.947 507.541C644.372 503.761 640.599 503.761 640.599 503.761Z" fill="white"/>
</svg>
