<svg width="624" height="1251" viewBox="0 0 624 1251" fill="none" xmlns="http://www.w3.org/2000/svg">
<path d="M44.6994 395.723C44.6994 395.723 41.6792 391.694 41.6792 384.651C41.6792 377.609 35.6392 360.505 25.57 343.4C15.5146 326.275 9.48161 315.224 12.4948 306.157C15.5148 297.104 22.557 263.897 22.557 256.862C22.557 249.799 20.539 225.652 38.6456 209.55C56.7591 193.454 71.866 192.445 78.9013 182.39C85.9573 172.314 130.229 170.303 140.284 169.301C150.353 168.292 170.478 166.281 170.478 166.281C170.478 166.281 170.478 139.121 168.474 136.101C166.463 133.06 167.465 123.005 172.496 123.005C177.527 123.005 167.458 114.946 168.474 103.882C169.476 92.8176 175.516 98.8509 175.516 98.8509C175.516 98.8509 179.531 74.7111 183.56 64.6419C186.311 57.7517 191.439 46.1621 194.383 39.5207C195.744 36.473 196.629 34.462 196.629 34.462L197.638 43.529C197.638 43.529 214.756 15.3256 250.969 5.29097C250.969 5.29097 282.179 -3.76226 305.317 3.25922C328.468 10.3222 364.681 42.5131 371.737 58.6017C378.773 74.7111 378.786 102.873 377.77 111.961C376.768 120.993 372.732 136.108 373.755 147.151C374.764 158.236 373.755 169.301 380.791 169.301C387.84 169.301 420.031 166.281 431.102 166.281C442.173 166.281 454.254 160.254 475.38 166.281C496.521 172.314 527.71 185.403 536.77 198.492C545.837 211.561 552.865 238.728 560.916 252.833C568.954 266.931 586.065 312.19 585.07 320.242C584.061 328.286 572.99 351.458 572.99 351.458C572.99 351.458 596.127 379.627 595.125 382.64C594.116 385.667 599.155 377.609 606.204 389.689C613.246 401.77 618.277 408.805 617.268 411.832C616.259 414.838 616.259 414.838 616.259 414.838C616.259 414.838 623.301 434.97 623.301 446.048C623.301 457.112 615.264 466.172 614.248 470.201C613.239 474.231 614.248 489.303 602.181 509.435C590.108 529.559 558.898 558.758 547.841 573.844C536.77 588.945 498.525 594.978 492.491 595.973C486.451 596.989 483.438 594.978 483.438 594.978C483.438 594.978 476.389 612.082 480.411 618.116C484.426 624.149 491.489 628.171 490.473 633.23C489.464 638.254 507.578 662.401 506.576 677.501C505.567 692.594 508.58 730.825 498.518 747.944C488.455 765.048 482.415 772.091 482.415 772.091C482.415 772.091 481.42 796.237 476.389 807.315C471.351 818.38 469.333 817.364 469.333 825.422C469.333 833.473 472.353 875.74 451.22 916.991C430.079 958.256 420.017 977.379 413.99 989.452C407.943 1001.52 405.933 1008.57 405.933 1008.57C405.933 1008.57 412.989 1002.52 408.953 1013.6C404.931 1024.66 387.826 1059.9 381.779 1069.96C375.746 1080.03 369.712 1098.14 369.712 1101.15C369.712 1104.17 366.685 1116.25 366.685 1116.25C366.685 1116.25 370.721 1125.3 363.658 1138.38C356.637 1151.46 345.545 1177.63 342.532 1193.72C339.512 1209.83 326.436 1260.15 282.158 1249.1C237.88 1238 244.915 1192.73 253.969 1171.6C263.029 1150.46 273.112 1142.4 276.118 1124.3C279.145 1106.18 283.167 1089.08 290.209 1081.02C297.252 1072.97 303.285 1067.94 303.285 1067.94L306.305 1059.9C306.305 1059.9 303.285 1055.87 306.305 1049.84C309.339 1043.8 320.41 1031.71 325.448 1012.59C330.472 993.475 338.523 984.421 338.523 984.421C338.523 984.421 342.546 956.239 337.514 944.172C332.483 932.078 327.452 910.958 343.548 883.785C359.65 856.625 389.83 816.369 381.792 812.347C373.748 808.317 361.668 800.273 348.572 791.199C335.49 782.153 306.305 765.041 304.294 762.028C302.283 759.008 302.283 759.008 302.283 759.008C302.283 759.008 299.263 751.966 292.227 767.06C285.178 782.153 270.099 810.335 259.027 820.391C247.942 830.453 237.88 853.591 223.795 863.646C209.711 873.722 191.591 884.801 188.571 888.83C185.544 892.852 176.49 895.872 176.49 895.872L181.528 899.901C181.528 899.901 194.611 890.841 197.624 886.818C200.651 882.782 213.733 872.734 222.794 872.734C231.847 872.734 252.973 880.772 252.973 901.905C252.973 923.046 235.869 938.118 229.836 968.319C220.775 1013.61 233.851 1025.68 218.757 1051.85C218.757 1051.85 208.695 1090.08 179.503 1089.08C150.326 1088.07 152.33 1037.75 152.33 1020.65C152.33 1003.54 152.33 993.482 152.33 993.482C152.33 993.482 146.304 988.45 145.295 981.408C144.286 974.352 146.304 971.346 146.304 971.346C146.304 971.346 124.168 968.319 112.095 980.399C100.007 992.473 77.8788 994.483 72.8407 991.463C67.8096 988.443 42.6536 974.352 42.6536 960.274C42.6536 946.19 43.663 902.928 47.6782 893.861C51.7142 884.807 51.7141 880.778 51.7141 880.778C51.7141 880.778 46.6827 880.778 46.6827 871.718C46.6827 862.644 50.6983 852.609 47.6782 847.558C44.665 842.526 46.6828 818.38 53.7181 798.255C60.7672 778.131 69.8208 747.951 75.8609 728.814C81.901 709.692 87.941 704.668 88.95 694.606C89.959 684.536 99.0123 681.53 99.0123 681.53C99.0123 681.53 90.961 669.443 110.083 637.252C129.199 605.04 148.322 580.907 155.378 574.867C162.42 568.82 170.464 551.695 170.464 551.695C170.464 551.695 141.272 520.513 141.272 510.451C141.272 500.381 146.31 472.212 143.29 459.109C140.263 446.048 139.268 438.992 139.268 438.992C139.268 438.992 124.175 467.174 109.074 480.264C93.988 493.339 90.968 494.355 90.968 494.355C90.968 494.355 93.9949 499.379 90.968 503.402C87.9479 507.431 88.9567 516.491 85.9366 517.5C82.9096 518.509 89.959 531.584 89.959 537.617C89.959 543.651 88.95 549.691 88.95 549.691C88.95 549.691 107.057 552.711 115.115 552.711C123.159 552.711 133.221 559.774 138.252 559.774C143.29 559.774 156.38 565.814 145.308 572.849C134.237 579.884 123.166 575.869 123.166 575.869C123.166 575.869 117.133 589.954 113.104 589.954C109.075 589.954 122.157 599.014 119.144 608.074C116.124 617.127 108.066 615.116 108.066 615.116C108.066 615.116 120.146 641.295 102.025 636.243C83.9117 631.232 97.0011 634.225 97.0011 634.225C97.0011 634.225 106.054 641.288 98.01 647.328C89.9588 653.361 89.959 653.361 89.959 653.361C89.959 653.361 97.0083 663.417 81.9079 664.419C66.8145 665.435 43.6698 651.343 43.6698 643.292C43.6698 635.248 37.6227 626.167 37.6227 617.113C37.6227 608.06 40.6496 599.007 40.6496 599.007C40.6496 599.007 9.46064 565.807 5.43158 552.704C1.40944 539.629 -1.61042 509.442 1.40964 502.399C4.42971 495.357 4.42979 492.344 4.42979 492.344C4.42979 492.344 3.42071 483.27 7.45668 475.226C11.4788 467.174 13.4898 464.161 13.4898 464.161C13.4898 464.161 14.4986 454.099 18.5207 453.097C22.5498 452.095 33.628 422.896 36.6412 413.843C39.6474 404.769 44.6994 395.723 44.6994 395.723Z" fill="black"/>
</svg>
