<svg width="1869" height="4216" viewBox="0 0 1869 4216" fill="none" xmlns="http://www.w3.org/2000/svg">
<path d="M255.97 601.118C255.97 601.118 234.947 508.063 237.96 487.04C240.966 465.989 328.044 453.957 328.044 453.957V375.905C328.044 375.905 282.999 348.87 282.999 327.854C282.999 306.872 306.993 300.784 306.993 300.784C306.993 300.784 292.017 285.856 292.017 273.824C292.017 261.799 322.024 234.764 322.024 219.719C322.024 204.791 349.018 213.748 349.018 213.748C349.018 213.748 379.06 105.654 448.121 57.6375C517.223 9.58595 604.259 -17.4081 712.359 12.5922C820.487 42.6408 916.805 122.296 943.584 204.798C979.604 315.822 949.528 426.998 949.528 426.998H964.566L940.578 462.983C940.578 462.983 937.53 502.05 931.552 517.047C925.54 532.023 913.543 532.023 913.543 532.023L907.496 541.041C907.496 541.041 985.54 538.035 1015.62 538.035C1045.67 538.035 1093.71 547.054 1129.73 541.041C1165.75 535.029 1207.82 550.067 1249.85 568.111C1291.89 586.087 1393.93 646.129 1426.94 676.163C1460.03 706.198 1460.03 748.21 1475.03 763.248C1490.02 778.245 1502.02 817.305 1508.07 886.379C1514.05 955.371 1547.06 1063.53 1526.04 1090.53C1505.06 1117.54 1475.03 1120.57 1475.03 1120.57L1478.03 1138.51C1478.03 1138.51 1502.05 1177.57 1541.09 1234.65C1580.11 1291.68 1616.13 1354.76 1637.18 1375.75C1658.17 1396.76 1679.22 1465.87 1679.22 1480.91C1679.22 1495.84 1676.21 1516.89 1694.19 1537.91C1712.23 1558.96 1652.15 1661.04 1625.16 1667.02C1598.12 1673.03 1523.05 1636.98 1490.03 1619C1457.02 1600.96 1420.93 1543.93 1418 1519.9C1414.99 1495.85 1387.92 1447.86 1378.94 1456.85C1369.91 1465.87 1279.87 1519.9 1276.86 1558.96C1273.85 1597.95 1291.89 1612.95 1297.84 1658.03C1303.86 1703.03 1297.84 1715.03 1297.84 1715.03C1297.84 1715.03 1342.88 1754.09 1336.86 1787.15C1330.88 1820.15 1306.86 1811.13 1306.86 1811.13C1306.86 1811.13 1303.86 1832.15 1324.91 1856.17C1345.89 1880.24 1378.93 1940.28 1381.94 1970.29C1384.91 2000.33 1418 2072.37 1420.93 2093.39C1424.01 2114.36 1487.02 2192.49 1511.05 2309.6C1535.07 2426.68 1550.07 2432.63 1538.08 2483.72C1526.05 2534.78 1523.04 2582.82 1538.08 2618.88C1553.13 2654.9 1532.06 2645.88 1532.06 2645.88C1532.06 2645.88 1544.1 2699.94 1541.09 2747.96C1538.07 2796.01 1547.07 2814.02 1556.08 2820.03C1565.07 2826.04 1550.06 2847.07 1550.06 2847.07C1550.06 2847.07 1571.09 2853.04 1574.09 2874.1C1577.1 2895.15 1574.09 2922.1 1574.09 2922.1C1574.09 2922.1 1625.14 2940.14 1676.2 3123.28C1727.23 3306.46 1697.23 3315.49 1727.26 3438.55C1757.27 3561.63 1784.27 3687.78 1793.29 3696.8C1802.31 3705.79 1817.35 3708.79 1826.34 3741.83C1835.32 3774.85 1859.38 3822.9 1859.38 3867.91C1859.38 3912.98 1889.38 4084.09 1841.34 4117.14C1793.29 4150.19 1697.23 4195.2 1634.18 4150.19C1571.09 4105.11 1583.08 4081.08 1589.13 3994.05C1595.11 3906.94 1601.09 3858.95 1583.08 3837.93C1565.08 3816.88 1610.12 3777.82 1598.12 3720.82C1586.13 3663.71 1583.12 3621.72 1535.07 3528.6C1487.02 3435.61 1399.98 3273.45 1390.95 3213.42C1381.94 3153.34 1342.9 3015.19 1321.89 2997.23C1300.87 2979.19 1282.86 2919.1 1261.85 2898.08C1240.83 2877.11 1192.78 2820.03 1171.73 2760.02C1150.75 2699.95 1162.74 2660.91 1120.71 2627.87C1078.68 2594.82 1045.67 2501.77 1027.66 2477.74C1009.61 2453.68 988.561 2441.76 988.561 2441.76L994.649 2513.77C994.649 2513.77 1006.6 2579.82 1012.62 2591.81C1018.64 2603.84 994.649 2606.86 994.649 2606.86C994.649 2606.86 1006.6 2639.9 976.605 2639.9C946.563 2639.9 844.489 2657.94 817.453 2648.89C790.418 2639.9 772.443 2621.85 772.443 2621.85C772.443 2621.85 739.36 2675.88 703.341 2720.96C667.321 2766.01 637.279 2814.02 637.279 2835.07C637.279 2856.08 619.276 2901.09 604.266 2919.1C589.269 2937.14 571.259 2976.22 583.257 2994.22C595.282 3012.16 646.339 3144.31 679.353 3186.35C712.366 3228.37 724.364 3294.48 730.376 3351.47C736.354 3408.55 763.424 3513.67 772.443 3540.63C781.468 3567.66 784.399 3588.67 784.399 3588.67C784.399 3588.67 790.418 3564.69 817.453 3576.68C844.489 3588.67 832.485 3630.68 832.485 3630.68C832.485 3630.68 841.51 3690.75 859.52 3735.83C877.502 3780.88 904.524 3852.99 874.524 3909.98C844.482 3966.99 754.398 3976.01 730.335 4045.11C706.347 4114.13 676.312 4180.23 601.301 4201.22C526.186 4222.23 433.166 4228.25 421.134 4165.2C409.102 4102.11 484.154 4003.03 529.2 3930.99C574.238 3858.9 574.238 3831.92 571.259 3804.86C568.253 3777.87 625.323 3789.86 604.266 3729.82C583.257 3669.74 580.244 3639.77 502.192 3501.61C424.14 3363.51 352.101 3189.36 343.082 3153.34C334.056 3117.27 328.044 3099.31 328.044 3099.31C328.044 3099.31 289.018 3081.27 279.992 3063.26C270.974 3045.24 289.018 3021.18 289.018 3021.18C289.018 3021.18 253.005 2973.18 240.966 2913.09C228.941 2853.05 231.948 2835.07 222.963 2814.02C213.938 2793 225.935 2741.94 237.96 2717.96C249.923 2693.89 255.97 2690.89 237.96 2654.91C219.957 2618.89 210.932 2630.89 219.957 2564.87C228.941 2498.76 267.967 2351.62 292.024 2294.58C316.019 2237.59 364.098 2201.52 364.098 2201.52C364.098 2201.52 382.108 2084.41 397.077 2033.31C412.108 1982.34 433.172 1916.24 433.172 1916.24C433.172 1916.24 358.051 1868.23 355.079 1835.18C352.101 1802.21 343.089 1754.12 349.025 1742.12C355.079 1730.1 355.079 1706.06 355.079 1694.04C355.079 1682.09 355.079 1667.05 355.079 1667.05C355.079 1667.05 231.948 1745.14 201.941 1739.12C171.899 1733.11 105.844 1673.06 105.844 1549.97C105.844 1426.87 108.851 1375.78 105.844 1342.8C102.831 1309.72 123.889 1234.68 123.889 1234.68L120.883 1204.67C120.883 1204.67 69.8178 1126.61 54.8211 1105.57C39.783 1084.54 51.7734 1045.48 24.7794 1003.48C-2.24911 961.446 0.72258 910.388 9.74131 886.407C18.76 862.412 -14.2464 838.355 9.74131 778.279C33.7705 718.202 95.3191 705.735 147.877 658.147C210.932 601.118 255.97 601.118 255.97 601.118Z" fill="black"/>
<path d="M331.05 345.905L329.55 324.917C329.55 324.917 319.025 324.917 309.999 329.354C301.05 333.866 316.012 339.844 320.525 342.892C325.037 345.905 331.05 345.905 331.05 345.905Z" fill="white"/>
<path d="M349.025 446.472C349.025 446.472 347.56 350.376 352.101 345.905C356.544 341.351 382.108 389.437 382.108 395.449C382.108 401.434 349.025 446.472 349.025 446.472Z" fill="white"/>
<path d="M343.082 503.55V485.505H349.025V500.502L343.082 503.55Z" fill="white"/>
<path d="M343.082 586.08L346.054 530.578L347.56 586.08H343.082Z" fill="white"/>
<path d="M322.031 590.586L326.544 533.515C326.544 533.515 267.967 533.515 267.967 538.028C267.967 542.541 272.473 598.07 278.493 598.07C284.512 598.07 322.031 590.586 322.031 590.586Z" fill="white"/>
<path d="M260.483 514.034V497.531C260.483 497.531 286.005 491.518 301.05 491.518C316.019 491.518 326.544 491.518 326.544 491.518L325.038 505.015C325.038 505.015 301.05 512.534 287.511 512.534C273.973 512.534 260.483 514.034 260.483 514.034Z" fill="white"/>
<path d="M1297.12 1149.82C1297.12 1149.82 1254.33 1089.02 1238.54 1084.51C1222.79 1080.06 1198.01 1068.76 1171.02 1086.76C1143.98 1104.81 1031.38 1181.4 977.317 1329.94C923.322 1478.6 988.561 1633.96 1049.39 1721.82C1110.22 1809.61 1153.01 1755.58 1173.23 1739.83C1193.5 1724.08 1290.38 1643.02 1319.6 1584.48C1348.89 1525.87 1357.91 1476.31 1357.91 1476.31C1357.91 1476.31 1328.62 1501.13 1310.57 1478.6C1292.61 1456.09 1346.66 1442.56 1357.91 1411.04C1369.18 1379.53 1366.89 1366.01 1366.89 1366.01C1366.89 1366.01 1333.14 1377.23 1315.09 1384.05C1297.11 1390.74 1267.82 1393.03 1263.35 1370.52C1258.84 1347.99 1265.57 1336.71 1288.09 1332.2C1310.57 1327.73 1344.38 1318.7 1353.39 1314.2C1362.41 1309.69 1364.67 1296.19 1364.67 1296.19C1364.67 1296.19 1324.11 1296.19 1310.57 1298.44C1297.11 1300.7 1252.07 1325.52 1234.02 1314.2C1216.02 1303 1213.76 1271.44 1243.05 1262.46C1272.34 1253.4 1351.14 1237.64 1342.16 1233.13C1333.14 1228.63 1306.14 1206.15 1292.61 1206.15C1279.07 1206.15 1247.56 1217.35 1234.02 1217.35C1220.57 1217.35 1195.79 1194.87 1209.32 1174.56C1222.79 1154.34 1263.35 1161.14 1276.85 1156.55C1290.39 1152.1 1297.12 1149.82 1297.12 1149.82Z" fill="#FF4000"/>
</svg>
