<svg width="1123" height="1013" viewBox="0 0 1123 1013" fill="none" xmlns="http://www.w3.org/2000/svg">
<path d="M303.199 255.69C303.199 255.69 268.216 282.228 260.973 282.228C253.744 282.228 232.03 244.826 226.004 233.983C219.978 223.126 213.931 208.648 222.383 200.21C230.828 191.771 265.811 171.26 262.196 168.841C258.568 166.436 260.973 160.403 246.502 164.017C232.023 167.639 213.931 168.841 210.309 165.227C206.702 161.612 211.526 155.579 211.526 149.539C211.526 143.513 217.559 130.251 216.349 124.21C215.14 118.177 224.808 118.177 224.808 118.177C224.808 118.177 218.768 73.5534 245.292 42.1918C271.837 10.8301 320.082 -4.85769 361.085 2.38494C402.108 9.62066 428.632 36.1724 435.874 49.4275C443.11 62.6895 451.555 79.5867 451.555 94.0581C451.555 108.53 453.974 131.446 453.974 131.446C453.974 131.446 469.655 126.629 473.269 127.839C476.898 129.041 498.605 125.42 505.84 121.798C513.076 118.184 532.378 119.393 555.295 129.034C578.218 138.682 587.866 143.513 593.892 155.579C599.919 167.632 611.978 194.176 618.018 200.203C624.058 206.229 633.706 230.348 634.909 236.388C636.111 242.421 659.021 248.448 665.068 270.155C671.094 291.869 674.715 295.49 671.094 302.726C667.473 309.969 689.187 344.945 690.389 355.795C691.592 366.652 693.997 411.289 690.389 429.375C686.761 447.461 692.808 454.711 681.937 454.711C671.087 454.711 683.147 465.561 678.33 469.175C673.499 472.796 672.296 477.62 679.539 480.032C686.761 482.437 683.147 500.523 692.801 508.982C702.449 517.42 709.684 549.984 724.163 575.32C738.641 600.648 754.308 621.146 755.524 644.063C756.741 666.986 760.355 686.281 754.315 691.105C748.289 695.936 748.289 695.936 748.289 695.936C748.289 695.936 770.003 699.564 785.677 704.388C801.365 709.212 814.627 715.231 823.072 715.231C831.517 715.231 841.171 715.231 850.812 715.231C860.453 715.231 868.919 721.257 873.729 721.257C878.559 721.257 884.599 721.257 884.599 721.257C884.599 721.257 884.6 710.414 894.247 710.414C903.895 710.414 919.562 704.395 929.209 707.995C938.864 711.61 952.14 700.767 969.023 704.395C985.913 707.995 1006.41 716.44 1019.69 716.44C1032.95 716.44 1087.23 720.069 1107.74 750.214C1107.74 750.214 1127.03 776.759 1122.21 797.257C1117.39 817.761 1082.4 818.991 1057.08 817.761C1031.75 816.566 1006.41 803.297 987.116 806.925C967.821 810.539 941.29 806.925 941.29 806.925C941.29 806.925 908.725 810.539 903.902 808.121C899.071 805.722 897.855 793.649 878.566 793.649C859.264 793.649 820.674 793.649 812.228 796.068C803.776 798.48 803.776 798.48 803.776 798.48C803.776 798.48 763.97 811.749 748.296 818.998C732.601 826.22 684.363 831.044 669.891 833.47C655.413 835.868 646.975 835.868 646.975 835.868C646.975 835.868 619.235 855.17 604.756 855.17C590.278 855.17 585.447 856.373 569.773 847.934C554.085 839.482 458.812 845.522 414.174 831.044C369.544 816.573 336.972 804.506 323.703 804.506C310.435 804.506 304.408 800.899 303.199 812.944C301.989 825.018 305.611 853.968 292.342 868.446C279.073 882.924 269.425 892.565 268.216 897.389C267.006 902.212 262.189 909.448 259.764 919.096C257.359 928.743 248.914 938.391 254.94 940.81C260.966 943.229 262.189 963.726 266.999 967.355C271.83 970.955 262.19 1005.95 246.495 1007.15C230.814 1008.35 188.609 1015.59 171.705 1010.76C154.822 1005.94 131.905 1010.76 106.577 1010.76C81.2413 1010.76 0.438965 981.819 0.438965 949.248C0.438965 916.684 48.684 908.246 69.1956 908.246C89.7002 908.246 123.467 913.07 134.324 913.07C145.181 913.07 150.005 911.86 150.005 911.86L153.619 904.631L159.645 907.043L174.131 908.253C174.131 908.253 187.393 909.455 182.569 881.708C177.752 853.974 184.981 821.403 186.183 814.181C187.393 806.939 186.183 787.63 186.183 781.61C186.183 775.563 165.679 757.47 182.569 726.102C199.452 694.768 244.09 667.014 270.628 667.014C297.145 667.014 334.554 674.256 339.377 669.426C344.201 664.595 362.294 651.326 377.975 650.13C393.649 648.928 397.27 652.535 397.27 652.535C397.27 652.535 412.958 609.114 412.958 594.65C412.958 580.171 411.748 531.919 414.16 516.259C416.558 500.558 417.768 478.85 417.768 478.85C417.768 478.85 406.911 454.738 397.263 449.914C387.616 445.07 377.968 442.665 374.347 437.827C370.732 433.003 376.765 424.579 376.765 424.579L367.118 414.925C367.118 414.925 351.43 426.984 349.025 416.141C346.606 405.284 353.849 393.21 353.849 393.21C353.849 393.21 341.789 358.234 326.108 337.73C310.428 317.218 308.023 293.106 306.813 281.04C305.604 268.959 303.199 255.69 303.199 255.69Z" fill="black"/>
<path d="M268.216 182.124L266.613 178.095L245.7 194.183L268.216 182.124Z" fill="white"/>
<path d="M267.421 200.61L266.613 197.383L252.141 208.655L267.421 200.61Z" fill="white"/>
<path d="M255.348 260.113L238.464 226.34L234.456 227.141L255.348 260.113Z" fill="white"/>
<path d="M265.811 260.113C265.811 260.113 240.876 228.759 248.105 223.126C255.341 217.494 262.583 213.472 266.612 213.472C270.634 213.472 274.657 219.104 277.062 219.104C279.467 219.104 282.687 231.157 281.892 235.98C281.077 240.811 280.289 245.642 275.451 249.65C270.634 253.679 265.811 260.113 265.811 260.113Z" fill="white"/>
<path d="M275.458 262.525C275.458 262.525 288.32 251.274 288.32 245.649C288.32 240.009 288.32 232.788 288.32 232.788C288.32 232.788 296.364 232.788 298.776 235.987C301.181 239.208 299.578 244.84 296.357 248.061C293.15 251.274 275.458 262.525 275.458 262.525Z" fill="white"/>
<path d="M468.445 647.705C468.445 647.705 467.623 642.881 470.049 638.852C472.461 634.836 478.093 621.975 478.093 621.975C478.093 621.975 485.329 630.821 486.939 635.645C488.549 640.476 492.571 641.277 492.571 641.277C492.571 641.277 490.152 644.484 490.968 648.499C491.77 652.528 491.77 652.528 491.77 652.528C491.77 652.528 483.725 648.499 478.895 648.499C474.078 648.492 468.445 647.705 468.445 647.705Z" fill="white"/>
</svg>
