<svg width="489" height="1338" viewBox="0 0 489 1338" fill="none" xmlns="http://www.w3.org/2000/svg">
<path d="M160.608 193.3C160.608 193.3 110.801 199.659 92.7916 214.476C74.7887 229.313 61.0152 230.371 53.6067 260.039C46.1637 289.708 55.7216 293.951 50.414 307.718C45.1203 321.498 64.1874 332.078 66.309 344.808C68.4169 357.511 79.025 362.811 73.7175 372.341C68.4099 381.892 73.7176 402.01 75.8531 405.189C77.9678 408.375 81.1398 411.561 81.1398 411.561C81.1398 411.561 79.0251 449.709 86.4405 474.084C93.849 498.445 94.927 517.505 94.927 517.505C94.927 517.505 92.7985 532.363 97.0418 534.471C101.285 536.586 103.4 536.586 104.471 540.829C105.528 545.059 110.815 552.481 110.815 552.481C110.815 552.481 99.1773 565.19 101.285 572.613C103.407 580.035 111.88 599.109 104.471 607.596C97.0419 616.068 103.407 626.663 104.471 634.078C105.528 641.48 100.221 651.017 100.221 654.189C100.221 657.375 105.528 658.432 105.528 658.432C105.528 658.432 103.407 697.645 106.606 762.282C109.765 826.927 123.545 914.861 116.109 926.513C108.694 938.151 111.88 934.986 111.88 934.986C111.88 934.986 72.6878 981.6 65.2655 1011.28C57.8363 1040.95 61.0221 1066.38 57.8362 1080.16C54.6641 1093.92 54.6642 1097.11 54.6642 1097.11C54.6642 1097.11 47.2418 1100.28 47.2418 1109.81C47.2418 1119.35 45.1271 1128.89 39.8265 1130.99C34.5327 1133.14 32.4111 1141.6 32.4111 1141.6C32.4111 1141.6 38.776 1156.44 32.4111 1158.55C26.0599 1160.66 14.3943 1163.85 5.92847 1197.75C-2.55812 1231.66 -0.443386 1239.08 5.92847 1256.03C12.2727 1272.98 18.6308 1283.58 19.702 1298.41C20.7524 1313.24 72.6878 1338.69 91.7481 1337.64C110.815 1336.57 125.667 1323.85 109.758 1295.24C93.8558 1266.63 90.6908 1241.22 90.6908 1224.26C90.6908 1207.32 99.1772 1194.59 94.927 1188.22C90.6907 1181.87 92.7985 1168.09 93.8559 1161.74C94.927 1155.37 104.471 1149.02 102.336 1144.78C100.221 1140.56 109.765 1126.78 109.765 1123.61C109.765 1120.41 119.295 1092.88 129.896 1078.03C140.511 1063.2 150.035 1063.2 155.335 1033.54C160.629 1003.86 170.159 994.323 178.653 983.735C187.132 973.134 192.419 958.317 192.419 958.317C192.419 958.317 208.321 967.834 217.838 929.699C227.395 891.544 217.838 905.338 217.838 905.338C217.838 905.338 225.274 834.336 229.503 823.734C233.74 813.154 236.919 765.468 243.284 765.468C249.635 765.468 254.928 753.803 254.928 753.803L261.28 768.641C261.28 768.641 260.222 777.113 263.415 777.113C266.594 777.113 312.158 837.514 331.225 857.625C350.313 877.777 378.91 910.625 375.724 918.04C372.559 925.449 336.532 992.208 336.532 1019.76C336.532 1047.31 334.411 1075.93 334.411 1083.33C334.411 1090.73 326.995 1102.4 326.995 1108.76C326.995 1115.11 321.708 1156.45 321.708 1156.45C321.708 1156.45 320.637 1136.3 314.279 1136.3C307.928 1136.3 301.563 1141.61 302.641 1150.07C303.678 1158.56 305.793 1162.8 305.793 1162.8C305.793 1162.8 265.523 1190.34 264.472 1217.89C263.408 1245.44 302.634 1256.04 321.701 1279.36C340.762 1302.65 342.89 1317.48 365.123 1323.85C387.376 1330.21 435.068 1339.74 440.348 1331.26C445.642 1322.79 425.524 1318.53 415.973 1304.77C406.457 1291.02 399.041 1283.59 399.041 1283.59C399.041 1283.59 387.376 1251.8 386.318 1236.96C385.275 1222.12 401.163 1265.58 401.163 1265.58L389.498 1227.43C389.498 1227.43 403.257 1236.97 403.257 1228.5C403.257 1220.02 388.426 1211.53 388.426 1211.53C388.426 1211.53 396.906 1192.47 391.612 1187.17C386.312 1181.88 383.133 1182.94 383.133 1182.94C383.133 1182.94 383.133 1158.57 387.369 1154.33C391.605 1150.08 390.534 1132.08 395.863 1117.25C401.163 1102.42 401.163 1102.42 401.163 1102.42C401.163 1102.42 425.524 1036.73 431.868 1014.48C438.24 992.222 459.422 964.675 468.952 947.723C478.496 930.77 483.804 919.091 483.804 913.811C483.804 908.503 482.733 904.274 482.733 904.274C482.733 904.274 488.054 902.166 488.054 892.615C488.054 883.085 476.388 847.052 470.03 839.629C463.652 832.221 454.135 814.211 452.034 802.566C449.899 790.887 450.949 766.526 445.642 754.867C440.348 743.229 436.125 738.979 436.125 731.577C436.125 724.141 421.288 718.847 421.288 710.388C421.288 701.895 404.328 681.777 399.041 676.477C393.72 671.169 379.967 662.689 370.43 645.751C360.886 628.805 348.163 612.91 348.163 612.91C348.163 612.91 356.65 604.423 353.478 594.893C350.299 585.356 343.934 582.177 343.934 582.177C343.934 582.177 349.228 573.698 348.163 567.347C347.106 560.975 333.333 553.573 338.633 550.387C343.934 547.215 350.299 546.158 349.221 537.664C348.163 529.198 344.998 512.239 348.163 509.046C351.356 505.881 346.049 477.277 343.934 464.56C341.812 451.851 346.056 430.663 336.525 423.233C326.988 415.825 338.64 397.801 360.886 408.402C383.139 418.99 374.674 442.301 383.14 450.78C391.619 459.246 406.457 475.148 420.237 479.405C434.011 483.642 443.527 479.405 447.77 468.804C452.027 458.209 456.236 435.963 445.635 407.352C435.068 378.727 422.338 378.727 422.338 378.727C422.338 378.727 401.163 355.43 408.565 352.238C415.966 349.065 422.338 345.893 422.338 337.407C422.338 328.941 419.152 326.805 413.852 325.748C408.558 324.698 405.372 320.454 405.372 320.454C405.372 320.454 412.794 315.161 408.558 306.674C404.315 298.201 392.663 304.559 392.663 304.559C392.663 304.559 394.778 287.607 386.305 282.292C377.839 276.992 370.417 282.292 370.417 282.292L367.231 266.404C367.231 266.404 376.768 256.867 376.768 250.516C376.768 244.151 372.538 234.621 371.467 221.919C370.417 209.189 356.636 195.408 356.636 195.408C356.636 195.408 370.417 166.811 369.359 154.088C368.309 141.393 368.309 137.129 368.309 137.129C368.309 137.129 370.423 128.656 347.099 128.656C323.802 128.656 323.802 128.656 323.802 128.656L317.424 123.362C317.424 123.362 316.373 110.646 314.265 103.217C312.137 95.8154 321.695 88.3999 328.032 92.6294C334.397 96.8727 342.884 80.9638 341.805 75.6769C340.755 70.3832 331.204 60.8392 328.032 60.8392C324.86 60.8392 300.471 0.45166 236.905 0.45166C173.331 0.45166 141.555 50.2656 140.504 87.3357C139.419 124.42 154.264 162.575 157.443 162.575C160.622 162.575 158.494 163.618 159.565 178.463C160.608 193.301 160.608 193.3 160.608 193.3Z" fill="black"/>
<path d="M305.053 391.422C305.053 391.422 319.186 378.022 322.012 373.067C324.846 368.126 338.239 368.126 347.465 368.126C356.629 368.126 375.696 368.126 375.696 364.587C375.696 361.063 377.839 356.812 368.64 356.812C359.442 356.812 335.427 353.281 331.895 353.281C328.37 353.281 326.968 360.344 332.614 356.812C338.239 353.281 315.675 349.756 334.735 341.989C353.803 334.221 369.359 329.259 373.595 329.259C377.839 329.259 377.811 320.786 372.172 318.671C366.539 316.543 349.573 317.966 338.246 322.908C326.975 327.849 311.425 330.675 324.134 324.317C336.871 317.966 352.4 313.004 357.341 311.608C362.296 310.192 376.422 302.431 365.116 296.052C353.803 289.701 335.44 300.295 326.27 303.827C317.071 307.372 307.914 315.851 307.914 315.851C307.914 315.851 307.196 296.052 313.554 288.305C319.905 280.53 322.026 279.811 326.974 275.589C331.902 271.345 326.975 261.449 316.366 267.807C305.779 274.158 293.063 290.413 290.243 297.469C287.41 304.539 295.184 274.87 301.549 268.519C307.914 262.154 319.905 260.744 342.524 269.929C365.123 279.099 369.366 281.228 369.366 285.471C369.366 289.701 376.422 294.649 380.665 295.368C384.895 296.059 392.67 304.545 392.67 304.545C392.67 304.545 382.78 310.896 391.253 315.147C399.726 319.362 404.667 320.081 404.667 320.081C404.667 320.081 409.622 327.849 408.212 337.745C406.782 347.635 415.966 349.045 415.966 349.045C415.966 349.045 421.619 357.531 421.619 364.587C421.619 371.657 423.741 406.979 417.411 423.212C411.032 439.46 405.379 449.35 392.67 446.53C379.96 443.71 347.479 430.275 331.909 418.271C316.359 406.26 305.053 391.422 305.053 391.422Z" fill="#FF4000"/>
<path d="M320.071 138.2L322.199 133.418C322.199 133.418 347.092 132.367 352.393 132.913C357.687 133.418 357.687 133.418 357.687 133.418C357.687 133.418 338.62 137.654 333.858 137.654C329.083 137.654 320.071 138.2 320.071 138.2Z" fill="white"/>
<path d="M351.868 190.654C351.868 190.654 358.758 171.566 358.758 164.676C358.758 157.792 358.758 153.57 358.758 153.57C358.758 153.57 362.462 151.98 362.462 154.088C362.462 156.196 362.462 171.566 359.808 176.341C357.154 181.103 351.868 190.654 351.868 190.654Z" fill="white"/>
<path d="M320.071 158.864C320.071 158.864 340.195 155.671 345.51 155.671C350.803 155.671 354.515 153.563 354.515 158.864C354.515 164.164 352.393 172.623 350.285 177.924C348.15 183.218 349.214 186.943 345.517 184.289C341.805 181.628 334.908 177.392 328.557 174.213C322.206 171.041 319.552 174.213 319.552 170.502C319.545 166.811 320.071 158.864 320.071 158.864Z" fill="white"/>
</svg>
