<svg width="968" height="1154" viewBox="0 0 968 1154" fill="none" xmlns="http://www.w3.org/2000/svg">
<path d="M559.712 192.627C559.712 192.627 547.611 179.545 548.627 172.489C549.615 165.454 575.78 145.315 575.78 145.315L569.753 124.154C569.753 124.154 555.662 126.179 549.615 120.153C543.589 114.106 542.559 103.035 545.593 97.0014C548.627 90.9544 548.627 90.9544 548.627 90.9544C548.627 90.9544 548.627 60.7467 558.682 43.6284C568.745 26.517 593.907 5.39013 627.142 1.36107C660.356 -2.65416 693.556 7.38732 707.661 26.5236C721.752 45.6461 727.826 69.8206 727.826 82.9029C727.826 95.9991 727.826 95.9992 727.826 95.9992C727.826 95.9992 732.823 87.9271 735.829 87.9271C738.863 87.9271 736.852 100.015 733.832 106.055C730.805 112.088 726.79 113.111 726.79 113.111C726.79 113.111 727.82 120.16 722.747 122.171C717.723 124.161 716.714 135.253 717.723 146.324C718.725 157.409 717.723 168.474 721.745 175.523C725.781 182.558 726.783 186.608 726.783 186.608C726.783 186.608 730.798 186.608 737.854 187.603C744.91 188.612 761.987 185.585 768.041 188.612C774.088 191.653 788.173 189.621 795.236 195.654C802.271 201.701 811.324 204.728 817.399 205.737C823.404 206.746 837.51 212.787 849.59 234.922C861.67 257.065 858.65 249.027 858.65 259.076C858.65 269.166 861.677 288.281 865.685 295.331C869.735 302.387 870.737 316.457 870.737 316.457C870.737 316.457 883.826 338.6 892.88 343.644C901.926 348.676 918.042 368.807 919.065 374.854C920.053 380.901 916.024 391.966 916.024 391.966C916.024 391.966 933.156 392.981 938.174 392.981C943.205 392.981 946.232 391.965 946.232 396.001C946.232 400.017 939.183 404.053 939.183 404.053C939.183 404.053 955.292 406.064 961.346 409.091C967.372 412.118 968.368 416.133 962.327 419.153C956.28 422.173 941.18 417.149 941.18 417.149C941.18 417.149 930.102 419.153 947.227 424.198C964.352 429.222 968.367 429.222 967.372 434.254C966.342 439.292 934.145 430.224 934.145 430.224C934.145 430.224 930.102 428.22 920.047 432.242C909.97 436.271 906.971 443.314 892.873 441.31C878.782 439.298 868.712 442.305 861.663 438.289C854.607 434.253 846.549 422.173 850.606 415.124C854.6 408.075 869.721 392.989 862.658 388.953C855.602 384.924 845.54 375.863 845.54 375.863C845.54 375.863 827.42 385.939 819.375 385.939C811.31 385.939 791.186 369.816 791.186 369.816C791.186 369.816 795.222 381.91 780.121 396.001C765.014 410.079 750.923 428.213 743.867 437.28C736.831 446.327 719.713 471.503 712.664 474.51C705.629 477.55 702.615 479.554 702.615 479.554C702.615 479.554 694.537 487.599 699.582 493.646C704.606 499.672 709.658 508.746 708.649 533.909C707.64 559.071 691.531 570.15 685.49 570.15C679.443 570.15 671.392 566.113 673.417 581.228C675.435 596.321 671.392 625.513 655.29 647.648C639.174 669.791 610.998 686.923 601.958 689.929C592.884 692.956 588.855 698.982 588.855 698.982C588.855 698.982 593.886 708.057 593.886 711.077C593.886 714.104 593.886 714.103 593.886 714.103C593.886 714.103 594.895 721.153 588.855 721.153C582.829 721.153 575.773 709.073 575.773 709.073C575.773 709.073 559.684 719.128 559.684 724.173C559.684 729.218 562.697 736.253 555.634 736.253C548.599 736.253 550.596 728.188 550.596 728.188C550.596 728.188 546.581 731.208 541.536 741.291C536.498 751.346 524.425 773.489 518.398 781.547C512.344 789.598 511.342 792.625 511.342 792.625C511.342 792.625 531.494 791.616 555.634 794.657C579.802 797.67 607.985 798.672 628.102 802.681C648.254 806.724 662.345 808.735 670.404 808.735C678.455 808.735 682.477 806.724 682.477 806.724C682.477 806.724 697.563 778.555 709.658 776.523C721.731 774.519 742.872 782.556 749.9 795.645C756.97 808.741 774.074 817.802 780.121 816.8C786.175 815.777 836.494 831.893 851.587 872.17C866.694 912.412 818.394 884.243 802.25 882.211C786.175 880.207 771.061 878.217 754.938 878.217C738.842 878.217 729.755 878.217 721.724 878.217C713.68 878.217 710.639 874.167 710.639 874.167C710.639 874.167 669.388 865.114 650.265 864.105C631.136 863.11 585.828 866.123 543.554 874.167C501.28 882.211 482.151 883.241 470.064 889.281C457.983 895.321 442.897 895.322 436.85 895.322C430.81 895.322 423.767 895.322 423.767 895.322L410.678 898.341C410.678 898.341 399.586 938.605 376.455 979.89C353.297 1021.17 322.094 1067.46 318.058 1081.55C314.036 1095.64 316.047 1108.74 320.062 1117.8C324.105 1126.85 321.071 1143.97 286.848 1143.97C252.619 1143.97 218.389 1154.04 203.31 1153.02C188.189 1152.03 166.046 1144.98 176.115 1133.9C186.184 1122.81 214.374 1108.74 221.444 1100.66C228.472 1092.61 257.67 1069.46 270.725 1053.37C283.828 1037.25 309.993 993.974 312.011 963.774C314.036 933.559 329.129 892.294 332.149 882.211C335.176 872.17 333.166 841.962 336.186 833.904C339.199 825.867 341.21 822.833 341.21 822.833C341.21 822.833 333.172 819.82 333.172 805.728C333.172 791.623 345.225 760.428 353.304 752.369C361.348 744.318 376.462 724.18 381.452 718.126C386.504 712.106 386.504 696.004 393.56 677.89C400.609 659.749 410.685 637.607 417.714 634.587C424.763 631.58 432.821 628.54 432.821 628.54C432.821 628.54 452.938 583.246 457.983 571.172C463.028 559.085 475.109 545.989 479.138 545.989C491.211 545.989 475.109 522.851 475.109 522.851C475.109 522.851 494.245 478.559 504.307 447.357C514.355 416.147 526.457 390.97 526.457 373.859C526.457 356.748 537.535 344.661 537.535 344.661C537.535 344.661 527.466 313.451 524.432 298.364C521.419 283.271 523.436 254.072 528.454 232.925C533.499 211.791 541.543 205.765 546.581 201.715C551.654 197.666 559.712 192.627 559.712 192.627Z" fill="black"/>
<path d="M567.998 188.861L564.225 190.36L555.925 177.534C555.925 177.534 562.725 173.754 564.225 176.767C565.746 179.801 567.998 188.861 567.998 188.861Z" fill="white"/>
<path d="M587.625 184.32C587.625 184.32 583.866 183.553 580.832 184.32C577.819 185.067 574.785 186.594 574.785 186.594C574.785 186.594 564.978 172.994 571.772 171.494C578.579 169.974 580.832 169.213 580.832 169.213C580.832 169.213 580.099 172.994 582.359 172.994C584.619 172.994 587.625 184.32 587.625 184.32Z" fill="white"/>
<path d="M577.818 151.853C577.818 151.853 562.725 163.927 560.451 166.974C558.191 169.988 565.745 168.474 569.525 166.974C573.305 165.454 580.831 162.427 580.831 162.427L577.818 151.853Z" fill="white"/>
<path d="M127.85 615.402C143.786 631.338 127.055 688.678 94.6358 721.111C62.196 753.53 29.0306 749.107 13.0872 733.185C-2.83554 717.262 -7.28603 668.996 25.1399 636.556C57.5866 604.124 111.927 599.5 127.85 615.402Z" fill="#FF4000"/>
</svg>
