<svg width="693" height="904" viewBox="0 0 693 904" fill="none" xmlns="http://www.w3.org/2000/svg">
<path d="M166.87 68.46C166.87 68.46 249.379 46.5593 277.99 53.2836C306.622 60.0286 335.247 73.5119 348.717 81.9294C362.179 90.3469 380.714 100.444 390.811 100.444C400.922 100.444 448.068 117.292 459.851 124.031C471.634 130.762 591.199 147.604 633.3 179.601C675.388 211.578 693.909 221.702 692.23 282.318C690.558 342.926 651.801 383.335 626.556 410.294C601.296 437.226 555.85 501.228 533.943 514.69C512.049 528.146 469.968 550.054 483.417 560.143C496.886 570.254 539.001 615.707 554.143 654.45C569.299 693.178 552.443 706.661 572.678 726.862C581.282 735.459 584.821 748.334 589.935 758.438C596.818 772.046 604.171 782.868 608.041 792.536C614.766 809.371 616.459 816.095 616.459 816.095L626.556 811.051C626.556 811.051 629.507 810.629 629.507 807.27C629.507 803.912 634.137 794.637 643.411 799.675C652.651 804.741 632.444 818.203 632.444 818.203C632.444 818.203 631.186 833.373 636.659 838.839C642.147 844.306 654.351 861.155 654.351 874.631C654.351 888.087 658.546 896.089 630.771 896.518C602.983 896.932 563.839 897.347 547.84 899.455C531.849 901.57 497.322 903.67 482.995 903.67C468.697 903.67 427.003 902.406 426.602 893.581C426.167 884.735 435.87 878.84 440.486 877.582C445.117 876.317 478.372 867.886 485.96 866.199C493.542 864.534 502.802 853.152 510.376 848.528C517.958 843.898 525.532 832.094 528.891 830.836C532.249 829.565 539.851 824.541 535.643 823.276C531.434 821.984 526.81 826.206 526.81 821.161C526.81 816.096 521.745 810.629 522.588 805.577C523.424 800.525 528.483 796.731 528.483 796.731C528.483 796.731 525.546 782.004 518.808 774.008C512.07 766.012 509.54 763.904 509.54 760.532C509.54 757.18 473.77 704.547 465.767 697.394C457.771 690.241 451.44 681.817 450.611 678.03C449.774 674.222 441.765 674.664 441.765 670.87C441.765 667.076 436.298 653.199 432.083 646.875C427.888 640.566 419.042 636.35 419.042 633.413C419.042 630.455 413.568 632.127 411.889 627.932C411.889 627.932 406.844 620.773 405.566 629.625C404.322 638.458 396.726 670.034 396.726 678.859C396.726 687.698 403.057 696.551 403.057 700.345C403.057 704.125 400.528 730.642 405.566 739.488C410.611 748.307 409.353 762.225 409.353 762.225C409.353 762.225 416.955 789.171 422.836 800.954C428.717 812.744 438.821 834.624 426.188 841.355C413.568 848.1 365.572 853.145 356.312 853.145C347.058 853.145 259.49 857.354 245.177 853.145C230.865 848.943 198.888 847.25 204.769 833.781C210.671 820.318 226.649 815.259 239.282 815.259C251.915 815.259 267.914 811.037 278.011 805.163C288.115 799.254 283.063 795.881 283.063 795.881C283.063 795.881 301.591 789.164 311.695 777.367C321.799 765.577 326.001 766.427 326.001 766.427C326.001 766.427 320.955 756.316 326.843 748.735C332.745 741.147 332.745 741.147 332.745 741.147C332.745 741.147 326.844 705.791 327.694 700.746C328.537 695.694 327.694 683.904 327.694 683.904C327.694 683.904 320.112 645.175 316.768 638.444C313.381 631.706 304.97 593.813 304.97 591.284C304.97 588.761 289.794 548.353 288.965 539.915C288.122 531.498 257.803 509.617 257.803 492.796C257.803 475.941 259.497 462.471 259.497 462.471C259.497 462.471 231.708 465.001 226.656 448.988C221.611 433.003 221.611 417.834 223.291 412.803C224.977 407.758 209.828 375.754 214.873 369.015C219.932 362.277 224.141 373.224 225.813 377.44C227.506 381.635 232.558 389.223 232.558 389.223C232.558 389.223 243.498 375.753 252.759 375.753C262.033 375.753 261.204 358.911 262.876 354.703C264.569 350.494 261.204 343.763 256.974 339.554C252.758 335.345 201.404 307.564 192.993 305.034C184.555 302.512 141.631 285.67 132.364 267.985C123.117 250.314 113.843 226.74 115.529 219.995C117.201 213.25 101.209 233.472 86.8969 233.472C72.5982 233.472 62.4737 215.787 62.4737 215.787C62.4737 215.787 7.75293 157.714 3.54419 145.067C-0.664552 132.434 0.192502 83.5949 0.192502 83.5949C0.192502 83.5949 -3.18683 39.8212 32.1694 16.2412C67.5463 -7.33879 102.052 0.25627 118.901 10.3393C135.75 20.4568 153.414 36.4487 157.63 48.2387C161.811 60.0495 166.87 68.46 166.87 68.46Z" fill="black"/>
<path d="M115.086 211.17C115.086 211.17 110.456 221.267 107.926 218.744C105.39 216.222 88.9697 201.059 88.9697 199.38C88.9697 197.68 92.3493 198.951 96.9727 202.324C101.617 205.682 109.205 210.326 111.299 210.326C113.393 210.326 115.086 211.17 115.086 211.17Z" fill="white"/>
<path d="M104.14 220.852C104.14 220.852 91.5272 229.27 87.2977 227.998C83.082 226.747 70.0272 216.637 69.1979 213.7C68.3617 210.735 80.988 201.495 83.5035 201.91C86.0398 202.331 90.2348 205.69 94.0289 209.906C97.8092 214.107 104.14 220.852 104.14 220.852Z" fill="white"/>
<path d="M75.9289 197.68C75.9289 197.68 64.9817 192.642 61.6161 190.112C58.2643 187.59 54.4702 189.684 51.1046 189.684C47.7183 189.684 59.9228 205.675 63.7238 206.532C67.5179 207.362 69.6121 204.839 72.1414 202.738C74.657 200.658 75.9289 197.68 75.9289 197.68Z" fill="white"/>
</svg>
