<svg width="771" height="1266" viewBox="0 0 771 1266" fill="none" xmlns="http://www.w3.org/2000/svg">
<path d="M402.865 172.24C402.865 172.24 415.616 183.015 427.372 158.522C439.141 134.002 448.961 93.7808 438.166 64.3749C427.372 34.9483 401.87 13.3933 378.346 5.53564C354.821 -2.31515 317.557 -3.28272 298.912 13.3933C280.287 30.0555 271.462 55.5498 267.543 61.4379C263.611 67.3121 253.811 76.1511 253.811 83.9812C253.811 91.832 256.748 93.7809 256.748 93.7809L260.667 129.103C260.667 129.103 245.974 131.058 245.974 138.902C245.974 146.746 256.748 182.04 256.748 182.04C256.748 182.04 227.335 184.984 216.541 189.884C205.76 194.791 191.046 213.416 190.072 216.353C189.091 219.311 180.279 218.336 179.298 222.234C178.296 226.166 180.279 208.544 168.496 216.353C156.727 224.224 156.727 231.08 144.964 235.012C133.202 238.917 119.463 267.369 114.556 275.192C114.556 275.192 103.451 294.798 103.451 301.357C103.451 307.881 103.451 310.5 103.451 310.5C103.451 310.5 88.4124 317.024 87.1131 328.8C85.807 340.556 79.2623 348.42 72.7246 360.176C66.18 371.945 62.925 382.408 62.925 382.408C62.925 382.408 60.3058 398.103 59.6562 400.694C58.9927 403.32 57.6935 412.477 59.6562 420.328C61.5981 428.165 61.5982 440.584 68.8062 443.839C75.9798 447.122 100.189 445.809 111.944 441.247C123.713 436.672 151.17 409.851 151.17 409.851C151.17 409.851 154.439 408.545 156.388 407.253C158.365 405.94 157.694 404.62 157.694 404.62C157.694 404.62 181.883 381.102 191.689 374.55C201.503 368.013 216.534 349.713 216.534 349.713L221.116 348.413C221.116 348.413 223.085 338.6 226.333 346.444C229.616 354.294 232.235 357.543 232.235 357.543C232.235 357.543 232.885 383.044 234.834 388.275C236.803 393.521 236.154 402.657 239.416 405.933C242.705 409.201 241.378 431.427 238.773 439.941C236.161 448.421 233.541 458.891 234.184 468.034C234.834 477.184 235.511 485.028 235.497 489.603C235.497 494.192 232.892 496.79 234.834 500.087C236.803 503.342 234.834 520.343 243.334 528.836C251.848 537.337 251.848 537.337 251.848 537.337C251.848 537.337 253.804 552.368 259.678 557.592C265.56 562.824 267.536 558.228 266.88 563.487C266.209 568.712 263.597 571.332 266.88 573.937C270.135 576.577 270.135 576.577 270.135 576.577C270.135 576.577 264.903 587.019 264.903 588.982C264.903 590.958 260.321 592.251 260.321 594.87C260.321 597.489 261.641 603.364 261.641 603.364C261.641 603.364 250.535 611.871 245.953 617.752C241.358 623.654 235.476 636.045 231.551 636.709C227.646 637.358 216.52 641.947 206.72 655.016C196.914 668.098 173.375 699.459 168.144 708.603C162.912 717.76 156.367 731.499 156.367 735.431C156.367 739.342 157.031 745.231 157.031 745.231C157.031 745.231 154.418 756.993 147.224 764.187C140.037 771.375 128.275 795.57 122.373 806.675C116.492 817.788 98.1983 849.157 98.1983 853.089C98.1983 857.008 100.804 861.589 98.8411 864.865C96.8784 868.12 97.528 873.987 100.147 875.328C102.773 876.634 98.1914 902.785 99.4837 909.966C100.797 917.153 92.9461 976.007 94.2522 1016.54C95.5653 1057.04 98.1913 1081.24 98.1913 1081.24C98.1913 1081.24 96.2286 1084.51 96.2286 1091.05C96.2286 1097.59 96.2286 1115.88 96.2286 1115.88C96.2286 1115.88 87.7144 1116.55 87.7144 1123.1C87.7144 1129.62 86.429 1146.62 86.429 1146.62C86.429 1146.62 80.534 1151.2 77.9217 1159.04C75.3025 1166.89 74.646 1177.98 74.646 1177.98C74.646 1177.98 65.4958 1171.47 58.3085 1173.42C51.1211 1175.38 45.2261 1174.09 45.2261 1176.7C45.2261 1179.33 49.8081 1185.21 55.6893 1185.21C61.5635 1185.21 68.7717 1185.21 68.7717 1185.21C68.7717 1185.21 57.659 1192.39 53.7336 1193.69C49.8082 1194.99 49.8082 1194.99 49.8082 1194.99C49.8082 1194.99 65.5027 1188.45 69.4143 1188.45C73.3397 1188.45 64.1897 1196.96 59.6216 1202.19C55.0396 1207.42 41.3147 1217.87 41.3147 1217.87C41.3147 1217.87 38.7093 1213.29 35.4197 1213.29C32.1578 1213.29 24.3138 1221.81 24.3138 1221.81C24.3138 1221.81 -1.85088 1236.85 0.795996 1248.61C3.40832 1260.37 41.3146 1257.11 58.965 1255.13C76.6155 1253.19 119.104 1249.91 128.917 1251.86C138.71 1253.82 147.874 1253.82 151.799 1247.31C155.725 1240.77 155.725 1204.15 154.412 1195.65C153.105 1187.13 148.524 1182.55 148.524 1182.55C148.524 1182.55 148.524 1142.03 151.792 1132.87C155.075 1123.73 154.405 1104.79 158.33 1099.53C162.242 1094.31 158.973 1088.44 158.973 1088.44C158.973 1088.44 156.354 1074.06 164.868 1062.29C173.361 1050.52 179.263 1016.53 180.569 996.262C181.855 975.993 181.205 936.117 182.518 927.596C183.825 919.116 184.467 908.653 189.712 904.078C194.937 899.51 196.25 893.614 196.25 893.614C196.25 893.614 198.213 893.614 199.526 891.002C200.825 888.369 245.947 840 285.152 815.169C324.385 790.338 328.311 783.8 336.818 776.585C345.305 769.412 369.493 743.904 369.493 743.904C369.493 743.904 390.398 758.292 405.457 776.585C420.488 794.899 438.139 817.118 448.595 838.687C459.058 860.276 467.552 884.458 473.44 894.271C479.328 904.071 481.94 904.734 481.94 904.734C481.94 904.734 510.689 951.141 517.234 952.447C523.772 953.746 526.391 954.41 526.391 954.41C526.391 954.41 556.454 987.098 563.655 998.875C570.842 1010.62 587.843 1049.2 595.037 1057.69C602.224 1066.21 622.48 1098.89 626.406 1100.84C630.331 1102.81 634.257 1115.23 638.838 1119.81C643.42 1124.38 647.318 1134.84 647.318 1134.84C647.318 1134.84 658.451 1164.91 658.451 1171.45C658.451 1177.96 657.152 1185.84 660.414 1187.81C663.683 1189.76 666.945 1193.04 664.326 1195.64C661.72 1198.25 651.921 1204.14 651.921 1207.41C651.921 1210.7 667.609 1198.25 667.609 1198.25C667.609 1198.25 673.483 1204.14 673.483 1206.75C673.483 1209.37 685.259 1225.7 689.848 1232.91C694.409 1240.07 700.297 1264.93 706.828 1265.6C713.372 1266.22 754.562 1259.04 765.674 1246.63C776.78 1234.21 767.637 1221.13 755.204 1207.4C742.778 1193.67 740.18 1189.75 740.18 1189.75C740.18 1189.75 745.398 1185.19 745.398 1179.95C745.398 1174.71 731.673 1171.45 731.673 1171.45C731.673 1171.45 723.172 1153.15 723.172 1149.2C723.172 1145.3 717.941 1138.74 714.015 1138.74C710.111 1138.74 701.603 1116.52 697.028 1113.24C692.446 1109.98 689.191 1099.53 689.191 1094.31C689.191 1089.09 684.609 1081.22 683.303 1079.28C681.997 1077.32 681.34 1074.69 681.34 1074.69C681.34 1074.69 655.19 1001.47 649.944 983.837C644.733 966.165 623.807 949.185 615.314 939.386C606.813 929.565 589.826 910.608 589.826 907.346C589.826 904.064 570.22 877.263 564.988 843.269C559.75 809.295 540.8 762.867 537.538 751.084C534.269 739.329 525.106 698.789 525.106 695.527C525.106 692.265 515.942 654.331 517.255 630.8C518.561 607.275 509.411 580.468 500.268 571.974C491.104 563.481 485.223 556.936 485.223 556.936C485.223 556.936 487.186 550.398 485.223 543.211C483.267 536.003 474.117 526.217 474.117 519.016C474.117 511.828 473.46 465.422 474.753 458.214C476.08 451.026 477.386 434.039 476.08 426.182C474.753 418.324 472.804 409.837 478.022 398.725C483.267 387.619 479.991 371.254 483.267 363.417C486.529 355.587 494.373 330.735 497.635 326.803C500.904 322.884 500.904 320.293 500.904 320.293C500.904 320.293 529.024 314.391 534.269 309.809C539.473 305.248 552.556 300.666 560.407 296.74C568.257 292.829 577.414 288.247 577.414 288.247C577.414 288.247 583.938 288.247 584.602 286.284C585.251 284.322 603.565 279.09 610.739 279.09C617.947 279.09 633.635 277.141 646.703 267.334C659.785 257.521 669.585 245.745 669.585 245.745C669.585 245.745 682.667 230.05 687.892 223.526C693.124 216.982 693.123 211.764 693.123 211.764C693.123 211.764 707.505 190.188 710.124 185.606C712.744 181.031 712.744 171.874 717.312 167.949C721.88 164.023 731.03 146.38 735.626 140.506C740.194 134.604 744.112 122.192 744.755 118.916C745.411 115.647 744.112 101.266 742.143 97.347C740.194 93.4355 640.822 135.917 639.516 127.416C638.203 118.923 632.971 113.705 630.359 111.086C627.746 108.467 624.485 109.123 624.485 116.967C624.485 124.811 626.433 129.386 625.127 131.349C623.821 133.311 623.821 141.148 628.403 143.767C632.971 146.387 636.24 157.499 638.859 158.819C641.471 160.112 655.846 163.394 655.846 167.306C655.846 171.231 654.54 171.231 654.54 171.231C654.54 171.231 647.332 167.956 644.07 175.157C640.815 182.351 639.502 183.65 639.502 183.65C639.502 183.65 623.807 194.106 621.188 194.106C618.582 194.106 608.79 202.607 608.106 205.226C607.47 207.838 603.538 209.145 603.538 209.145C603.538 209.145 595.7 214.376 589.17 214.376C582.632 214.376 568.893 215.682 562.342 216.982C555.811 218.288 552.542 219.594 552.542 219.594C552.542 219.594 541.436 194.107 522.479 186.905C503.523 179.739 487.821 176.47 472.127 177.769C456.446 179.068 440.102 181.038 431.608 177.769C423.108 174.493 419.175 176.47 415.906 179.739C412.638 182.987 408.069 179.739 408.712 177.769C409.382 175.813 402.188 178.419 402.188 178.419L402.865 172.24Z" fill="black"/>
<path d="M261.171 173.712C261.171 173.712 247.923 140.851 253.306 138.405C258.718 135.965 262.152 138.405 262.152 138.405C262.152 138.405 259.202 143.311 260.681 144.776C262.153 146.255 264.108 155.081 264.108 159.98C264.101 164.88 261.171 173.712 261.171 173.712Z" fill="white"/>
<path d="M263.618 178.122C263.618 178.122 269.029 170.271 268.538 159.497C268.034 148.688 267.55 146.249 267.55 146.249L273.922 144.77C273.922 144.77 276.368 154.584 275.387 156.539C274.406 158.516 276.845 161.95 276.845 161.95C276.845 161.95 273.431 167.818 273.915 172.725C274.406 177.624 269.492 177.624 268.027 177.624C266.562 177.624 263.618 178.122 263.618 178.122Z" fill="white"/>
<path d="M266.064 141.335V137.43L272.436 134.97L272.927 139.87L266.064 141.335Z" fill="white"/>
<path d="M265.09 121.245L262.153 94.7764L264.599 93.7744V97.6998L267.053 98.6881C267.053 98.6881 268.041 105.06 268.041 108.992C268.034 112.911 265.09 121.245 265.09 121.245Z" fill="white"/>
<path d="M271.953 128.107V122.71L269.022 129.103L271.953 128.107Z" fill="white"/>
<path d="M71.6605 1182.02C71.6605 1182.02 69.2142 1177.59 61.6053 1177.59C54.0102 1177.59 50.3335 1178.34 50.3335 1178.34C50.3335 1178.34 54.5077 1181.53 57.6936 1182.26C60.8865 1183 71.6605 1182.02 71.6605 1182.02Z" fill="white"/>
<path d="M739.461 1185.68C739.461 1185.68 745.336 1181.04 741.417 1179.33C737.499 1177.59 731.127 1177.37 731.127 1178.34C731.127 1179.33 742.392 1180.55 740.436 1182.01C738.473 1183.49 737.499 1183.49 737.499 1183.49C737.499 1183.49 737.499 1184.7 738.48 1185.21C739.461 1185.68 739.461 1185.68 739.461 1185.68Z" fill="white"/>
<path d="M740.678 108.992C740.678 108.992 747.554 94.7691 748.515 90.36C749.51 85.9439 751.452 60.4496 746.566 48.1828C741.659 35.9297 738.729 25.6326 718.611 25.1419C698.501 24.6443 669.585 28.0859 648.01 54.064C626.434 80.049 620.062 105.543 620.559 115.854C621.043 126.138 622.999 151.148 633.794 158.992C644.596 166.822 654.388 166.822 654.388 166.822C654.388 166.822 648.991 160.948 644.596 159.974C640.159 158.992 636.738 156.539 634.285 151.639C631.838 146.739 627.436 142.323 625.943 140.844C624.485 139.379 622.992 134.963 624.485 133.007C625.943 131.051 625.943 121.238 624.969 117.803C624.001 114.396 624.485 109.959 629.371 110.443C634.285 110.948 639.184 124.68 639.184 127.119C639.184 129.572 644.596 133.996 645.57 136.456C646.544 138.902 654.388 141.335 654.388 141.335C654.388 141.335 667.139 139.87 674.99 141.335C682.827 142.821 687.236 145.765 688.708 143.788C690.173 141.826 698.998 137.907 703.898 137.907C708.805 137.907 715.667 139.863 718.135 139.863C720.581 139.863 724.5 132.033 727.934 129.089C731.369 126.131 738.218 118.294 738.218 115.357C738.218 112.42 740.678 108.992 740.678 108.992Z" fill="#FF4000"/>
</svg>
