<svg width="749" height="1282" viewBox="0 0 749 1282" fill="none" xmlns="http://www.w3.org/2000/svg">
<path d="M216.107 268.605C216.107 268.605 211.947 253.325 221.664 228.286C231.415 203.269 241.125 197.706 242.535 183.808C243.91 169.896 256.46 171.292 267.552 165.729C278.665 160.152 310.662 160.152 323.178 160.152C335.673 160.152 350.96 161.562 362.073 162.951C373.199 164.34 396.82 174.064 396.82 174.064C396.82 174.064 381.534 156.005 381.534 129.571C381.534 103.171 381.534 64.2423 407.954 33.6615C434.374 3.08077 471.908 -1.09335 491.369 1.69174C510.816 4.47684 548.349 28.1052 556.684 44.7881C556.684 44.7881 565.73 58.679 568.529 67.0274C571.279 75.3689 570.595 72.5976 570.595 72.5976C570.595 72.5976 578.239 80.241 579.621 86.5023C581.038 92.7428 587.264 99.6953 587.264 105.265C587.264 110.808 581.729 106.641 581.729 106.641C581.729 106.641 582.441 124.727 584.5 126.8C586.573 128.88 590.077 133.745 588.66 137.919C587.264 142.087 583.104 141.389 583.104 141.389C583.104 141.389 586.573 146.268 587.264 149.723C587.976 153.206 583.104 153.206 583.104 153.206C583.104 153.206 586.573 177.519 581.729 182.384C576.864 187.277 564.348 182.398 564.348 182.398L563.636 185.867C563.636 185.867 583.788 187.941 597.72 191.424C611.598 194.9 645.675 206.026 658.191 217.858C670.706 229.648 683.907 240.083 687.39 256.78C690.838 273.456 699.193 301.95 699.193 306.124C699.193 310.298 697.797 316.546 697.797 316.546C697.797 316.546 721.44 341.577 724.197 349.227C726.968 356.864 729.104 368.682 733.264 371.46C737.425 374.245 748.551 388.834 748.551 397.175C748.551 405.51 743.686 415.254 743.686 423.589C743.686 439.574 748.551 459.74 743.686 470.866C743.686 470.866 718.661 529.934 690.174 531.33C661.646 532.726 651.93 508.399 644.245 497.273C636.636 486.153 603.954 431.93 599.794 424.28C595.619 416.636 583.809 390.928 578.923 394.411C574.058 397.873 575.433 424.985 574.057 432.642C572.682 440.272 568.522 452.767 568.522 458.351C568.522 463.907 566.407 473.637 561.542 481.288C556.677 488.938 551.12 491.71 551.853 502.829C552.523 513.956 553.905 522.297 550.436 524.384C546.967 526.478 550.436 540.369 547.637 543.831C544.9 547.328 544.9 549.409 544.9 549.409C544.9 549.409 552.53 561.219 550.443 572.346C548.349 583.466 546.974 584.862 546.974 584.862C546.974 584.862 552.53 595.974 548.349 601.531C544.209 607.108 543.505 607.799 541.397 615.442C539.324 623.086 529.593 632.809 529.593 632.809C529.593 632.809 532.371 655.76 530.304 664.793C528.197 673.826 524.043 690.509 524.043 696.058C524.043 701.628 526.11 705.809 529.6 710.661C533.069 715.533 540.042 731.525 547.644 734.282C555.308 737.067 560.194 736.383 572.689 750.979C585.198 765.575 602.572 787.116 602.572 803.108C602.572 819.1 595.619 844.815 586.58 856.619C577.554 868.451 570.595 867.753 570.595 867.753C570.595 867.753 561.549 892.079 559.503 894.173C557.395 896.26 560.885 901.816 555.315 908.755C549.759 915.707 519.89 968.555 514.313 980.352C508.729 992.17 501.797 1001.21 501.797 1003.99C501.797 1006.77 480.926 1049.86 478.148 1065.86C475.377 1081.85 471.196 1098.53 473.988 1100.62C476.787 1102.7 488.57 1108.95 488.57 1120.06C488.57 1131.2 473.276 1139.54 473.276 1139.54C473.276 1139.54 478.141 1160.37 482.322 1165.26C486.482 1170.1 487.885 1183.33 487.885 1190.26C487.885 1197.22 490.657 1204.87 496.22 1211.81C501.797 1218.78 511.528 1236.16 503.173 1244.49C494.838 1252.82 445.48 1250.75 420.463 1227.82C395.459 1204.87 397.525 1184.73 386.413 1182.64C375.279 1180.54 358.596 1174.29 357.919 1161.79C357.193 1149.26 357.919 1131.2 373.192 1111.71C388.479 1092.27 396.143 1086.01 395.459 1092.27C394.734 1098.52 412.128 1049.85 414.886 1040.14C417.684 1030.4 428.797 997.042 428.797 987.995C428.797 978.97 432.971 969.937 432.971 969.937C432.971 969.937 439.219 956.026 439.219 943.517C439.219 930.994 444.775 910.151 444.775 910.151C444.775 910.151 435.75 916.412 434.374 924.042C432.971 931.706 416.302 958.818 407.975 974.104C399.619 989.391 376.668 998.417 367.643 1000.52C358.596 1002.61 351.658 1000.52 351.658 1000.52C351.658 1000.52 325.922 1033.88 309.239 1046.39C292.549 1058.9 284.919 1067.93 284.919 1067.93C284.919 1067.93 276.585 1077.67 267.538 1083.23C258.471 1088.78 246.688 1101.29 236.958 1111.71C227.227 1122.15 221.65 1132.59 221.65 1132.59C221.65 1132.59 239.051 1144.4 239.051 1152.75C239.051 1161.09 240.468 1174.98 232.092 1177.06C223.737 1179.15 218.16 1179.84 218.16 1179.84C218.16 1179.84 231.401 1188.19 224.442 1194.44C217.469 1200.69 208.45 1190.97 208.45 1190.97C208.45 1190.97 203.585 1196.53 198.74 1203.47C193.854 1210.42 184.808 1220.16 181.359 1243.09C177.869 1266.04 170.226 1293.13 143.805 1275.77C117.406 1258.4 111.822 1215.98 117.406 1192.36C122.941 1168.71 125.733 1135.36 118.781 1122.83C111.822 1110.33 109.071 1079.74 122.25 1063.05C135.471 1046.39 150.087 1047.08 157.005 1051.94C163.978 1056.81 179.252 1063.08 186.204 1057.51C193.163 1051.94 214.711 1020.66 220.959 1012.32C227.22 1003.99 233.474 997.747 233.474 1001.9C233.474 1006.07 242.521 960.186 259.204 943.51C275.873 926.827 291.167 911.54 297.428 910.144C303.669 908.741 304.366 910.856 304.366 910.856C304.366 910.856 309.964 912.922 315.493 874.705C321.049 836.46 318.983 809.349 321.754 798.927C324.512 788.498 327.317 769.044 327.317 769.044C327.317 769.044 302.984 752.354 290.455 730.82C277.96 709.265 272.383 679.389 272.383 659.921C272.383 640.467 276.578 620.294 283.516 608.49C290.455 596.659 300.897 583.466 300.897 583.466C300.897 583.466 294.67 578.593 291.872 568.172C289.073 557.743 302.314 555.663 307.158 543.838C312.003 532.021 314.802 518.828 314.802 518.828C314.802 518.828 306.467 513.942 306.467 502.836C306.467 491.723 311.312 479.899 305.776 467.39C300.199 454.888 304.359 433.34 301.581 422.213C298.803 411.08 297.421 381.197 297.421 376.339C297.421 371.467 294.664 353.401 292.535 349.911C290.448 346.442 288.374 343.671 286.999 346.442C285.617 349.241 283.509 352.703 280.019 350.616C276.571 348.536 276.571 343.671 276.571 343.671C276.571 343.671 267.524 348.536 251.553 352.703C235.534 356.871 207.061 363.816 198.035 362.427C188.975 361.045 181.352 355.489 176.466 361.045C171.621 366.615 159.776 377.735 151.442 394.425C143.107 411.087 120.861 430.548 113.224 438.903C105.56 447.238 100.025 457.659 100.025 457.659C100.025 457.659 88.8912 476.429 86.113 482.677C83.3349 488.938 87.5093 491.025 85.4014 493.804C83.3282 496.575 76.3687 505.628 81.234 516.741C81.234 516.741 87.4812 532.007 91.6623 541.067C95.8365 550.107 95.1524 562.615 95.1524 570.971C95.1524 579.298 85.4013 598.759 81.234 601.531C74.2401 606.209 73.5976 593.901 73.5976 593.901C73.5976 593.901 66.6381 598.068 63.1688 598.068C59.6857 598.068 56.9284 593.196 54.1088 597.363C51.372 601.531 42.3258 598.068 39.5269 595.283C36.7556 592.505 36.7553 590.418 32.5742 591.821C28.4138 593.196 17.3013 593.196 7.55 583.472C-2.16673 573.735 -1.47591 566.092 4.77155 545.932C11.0397 525.766 24.9516 501.454 27.7091 493.804C30.4803 486.16 38.8147 466.008 45.0829 454.19C51.3718 442.365 52.0423 438.903 52.0423 438.903C52.0423 438.903 77.7784 384.68 95.1524 354.784C112.526 324.894 123.66 315.17 136.155 306.829C136.155 306.829 145.181 299.179 165.354 291.535C172.679 288.75 178.408 287.423 184.13 284.597C194.151 279.648 202.375 273.657 206.363 272.772C212.617 271.383 216.107 268.605 216.107 268.605Z" fill="black"/>
<path d="M571.093 178.411C571.093 178.411 572.164 166.945 570.595 164.865C569.061 162.778 567.99 173.725 566.435 175.28C564.88 176.862 565.902 177.885 567.471 177.885C569.061 177.885 571.093 178.411 571.093 178.411Z" fill="white"/>
<path d="M577.375 176.856L577.893 163.815C577.893 163.815 581.57 176.856 579.483 176.856C577.375 176.856 577.375 176.856 577.375 176.856Z" fill="white"/>
<path d="M205.665 1179.17C205.665 1179.17 212.292 1181.94 216.791 1184.4C221.311 1186.82 226.156 1191.34 218.554 1191.68C210.897 1192.03 209.148 1185.08 207.766 1182.98C206.377 1180.91 205.665 1179.17 205.665 1179.17Z" fill="white"/>
<path d="M636.815 294.155C636.815 294.155 613.346 293.104 594.085 317.085C574.79 341.066 563.829 361.398 563.829 383.298C563.829 405.185 577.893 439.594 590.409 451.073C602.917 462.539 612.309 474.011 629.013 469.837C645.682 465.655 673.291 449.512 681.625 438.04C689.974 426.561 692.6 417.176 692.6 417.176C692.6 417.176 665.468 394.77 655.088 394.245C644.625 393.713 624.811 397.887 620.139 395.268C615.419 392.676 611.784 387.984 613.339 385.897C614.894 383.817 607.61 384.853 606.573 377.037C605.536 369.214 609.711 366.097 615.419 362.959C621.19 359.836 630.554 356.698 639.925 356.187C649.31 355.675 657.133 354.625 657.133 354.625C657.133 354.625 654.542 344.715 640.443 336.891C626.38 329.075 615.419 327.513 614.382 320.741C613.332 313.961 617.009 306.663 624.272 306.663C631.591 306.663 641.473 311.356 646.193 314.486C650.886 317.624 665.461 326.988 665.461 326.988C665.461 326.988 658.184 312.392 650.361 307.195C642.544 301.971 636.802 296.753 636.802 296.753V294.155H636.815Z" fill="#FF4000"/>
</svg>
