<svg width="696" height="1216" viewBox="0 0 696 1216" fill="none" xmlns="http://www.w3.org/2000/svg">
<path d="M90.4724 470.012C90.4724 470.012 49.7672 399.32 54.045 367.178C58.3229 335.049 81.8893 339.334 101.171 320.045C120.452 300.764 154.723 264.357 174.018 260.066C193.293 255.774 199.727 249.34 199.727 249.34C199.727 249.34 189.001 238.621 195.435 234.357C201.862 230.065 244.71 193.638 253.28 182.94C261.849 172.228 291.835 167.95 306.832 167.95C321.843 167.95 375.388 165.787 375.388 165.787C375.388 165.787 362.548 110.099 375.388 73.6646C388.256 37.2511 424.663 0.851318 471.789 0.851318C518.942 0.851318 555.355 39.3934 559.647 56.5463C563.925 73.6646 587.484 112.248 570.352 142.248C553.22 172.228 553.22 172.228 553.22 172.228C553.22 172.228 610.442 219.34 608.922 268.642C606.759 337.191 568.196 354.33 568.196 354.33C568.196 354.33 568.196 405.74 544.65 455.022C521.077 504.29 510.344 515.002 510.344 515.002C510.344 515.002 488.942 549.28 486.792 555.714C484.643 562.134 501.803 574.989 484.643 583.558C467.518 592.141 467.518 592.141 467.518 592.141C467.518 592.141 448.216 609.26 441.802 613.558C435.382 617.836 488.935 664.962 514.643 699.24C540.345 733.525 568.189 761.376 568.189 793.504C568.189 825.633 568.189 825.633 568.189 825.633L563.918 836.352C563.918 836.352 578.901 885.627 574.623 939.186C570.345 992.739 570.345 1027.02 568.189 1044.16C566.046 1061.3 561.789 1097.72 570.345 1097.72C578.901 1097.72 603.545 1153.42 618.556 1153.42C657.112 1153.42 678.445 1155.06 689.247 1169.48C695.674 1178.05 707.444 1187.69 664.61 1198.41C621.769 1209.11 546.799 1215.55 518.949 1215.55C491.084 1215.55 469.674 1196.26 478.244 1174.84C486.792 1153.41 488.948 1134.12 488.948 1127.71C488.948 1121.27 497.497 1114.85 497.497 1114.85C497.497 1114.85 497.497 1059.16 493.233 1050.59C488.948 1042.01 452.514 960.596 450.399 926.318C448.229 892.04 448.229 864.196 448.229 864.196C448.229 864.196 463.254 821.335 422.542 799.932C381.816 778.508 319.707 735.653 296.134 716.379C272.568 697.09 221.137 639.246 223.293 679.958C225.435 720.664 212.588 716.379 214.731 742.087C216.873 767.803 210.446 802.067 191.164 814.935C171.883 827.769 159.029 851.349 152.609 883.484C146.161 915.613 133.313 960.603 124.751 977.742C116.188 994.881 99.0351 1027.02 99.0351 1027.02C99.0351 1027.02 88.3233 1069.86 92.6219 1078.43C96.8998 1087 101.177 1110.57 101.177 1110.57C101.177 1110.57 139.747 1131.99 152.601 1131.99C165.449 1131.99 189.015 1136.28 180.446 1155.57C171.876 1174.84 148.324 1183.42 103.313 1185.55C58.3231 1187.68 0.492676 1198.4 0.492676 1179.13C0.492676 1159.83 6.89872 1119.13 13.3397 1114.84C19.753 1110.57 32.6142 1067.71 32.6142 1046.28C32.6142 1024.87 30.4718 1018.44 30.4718 1018.44C30.4718 1018.44 30.4722 898.467 45.4688 868.467C60.4655 838.474 88.3161 802.06 88.3161 780.636C88.3161 759.226 73.3128 709.945 73.3128 682.087C73.3128 654.236 51.896 604.975 58.3163 553.551C64.7641 502.155 90.4724 470.012 90.4724 470.012Z" fill="black"/>
<path d="M456.28 411.103C456.28 411.103 449.86 456.086 446.633 470.544C443.419 485.009 437.006 531.616 437.006 538.036C437.006 544.47 428.955 558.935 420.931 558.935C412.894 558.935 406.466 558.935 406.466 558.935C406.466 558.935 408.063 538.036 406.466 526.792C404.863 515.541 414.511 486.626 422.541 481.802C430.558 476.992 440.212 452.887 440.212 448.056C440.212 443.232 449.86 428.768 451.45 423.958C453.067 419.134 456.28 411.103 456.28 411.103Z" fill="white"/>
</svg>
