<svg width="661" height="1241" viewBox="0 0 661 1241" fill="none" xmlns="http://www.w3.org/2000/svg">
<path d="M334.565 247.735C334.565 247.735 316.445 246.532 303.134 250.762C289.831 254.991 275.338 259.214 268.082 264.653C260.825 270.099 239.671 279.774 238.462 302.131C238.462 302.131 237.868 303.948 240.286 310.603C242.712 317.245 251.772 332.352 255.387 335.379C259.036 338.399 263.852 349.878 263.852 354.723C263.852 359.553 264.468 377.08 268.69 379.498C272.92 381.917 279.561 410.936 280.791 413.956C281.98 416.983 285.007 436.907 289.844 439.326C294.682 441.752 295.884 452.035 295.884 457.474C295.884 462.899 285.014 479.817 288.041 493.12C291.068 506.41 298.324 522.748 304.958 536.03C311.6 549.341 312.215 551.144 315.85 552.941C319.457 554.766 314.012 559.61 314.012 568.671C314.012 577.745 315.85 583.785 312.809 585.588C309.782 587.406 297.094 601.304 292.249 623.661C287.426 646.024 282.595 671.415 285 693.786C287.425 716.129 291.648 726.433 289.222 737.29C286.804 748.181 268.676 775.963 262.629 818.887C256.603 861.804 255.373 890.816 243.9 899.89C232.428 908.95 225.172 912.571 225.172 912.571C225.172 912.571 188.275 931.32 171.384 945.218C154.425 959.123 153.257 974.23 139.933 984.5C126.643 994.783 113.353 1008.08 106.705 1018.35C100.043 1028.62 97.0163 1028.62 97.0163 1028.62C97.0163 1028.62 86.7397 1017.73 80.7134 1014.11C74.6663 1010.5 71.031 1005.05 60.1671 1007.46C49.2893 1009.88 43.2288 1009.88 45.6476 1026.82C48.0872 1043.74 46.2419 1053.4 46.2419 1053.4C46.2419 1053.4 33.5464 1047.35 24.4931 1051.59C15.4329 1055.81 -2.68739 1067.91 1.54208 1087.85C5.77155 1107.81 24.4931 1113.23 24.4931 1128.95C24.4931 1144.65 20.2636 1185.16 29.3515 1202.69C38.3909 1220.22 51.0931 1241.37 63.7816 1240.78C76.4631 1240.15 83.132 1234.73 83.7263 1214.78C84.3414 1194.83 77.6934 1178.52 79.504 1168.25C81.3009 1157.98 84.3418 1148.29 84.3418 1148.29C84.3418 1148.29 92.8005 1157.97 100.043 1157.97C107.286 1157.97 107.293 1157.97 107.293 1157.97C107.293 1157.97 93.4087 1149.5 90.9899 1145.86C88.5711 1142.24 99.4417 1151.32 102.462 1151.92C105.489 1152.52 93.9961 1135.01 90.9899 1130.76C87.9698 1126.53 79.5039 1124.12 82.517 1118.07C85.5302 1112.01 95.8 1119.88 98.8478 1116.24C101.847 1112.63 105.454 1101.14 109.705 1097.51C113.927 1093.89 123.015 1085.43 127.258 1079.38C130.679 1074.51 131.467 1075.76 130.859 1070.92C130.859 1070.92 122.4 1064.86 141.135 1053.39C159.891 1041.91 207.625 1013.5 225.158 999.6C242.684 985.702 258.987 979.033 267.453 977.23C275.926 975.433 281.351 974.81 281.351 974.81C281.351 974.81 286.195 997.796 286.789 1012.9C287.405 1028.02 288.614 1073.94 300.688 1084.82C312.789 1095.69 325.484 1095.69 326.078 1073.94C326.7 1052.19 315.214 1043.12 326.078 1027.41C336.97 1011.69 335.753 1003.84 338.172 1002.01C340.598 1000.2 349.064 1001.41 352.077 997.188C355.097 992.973 346.652 983.891 355.097 979.04C363.577 974.223 370.806 973.014 375.643 969.987C380.495 966.96 390.163 962.129 390.163 962.129C390.163 962.129 378.684 971.797 376.258 975.433C373.846 979.033 371.421 984.493 371.421 984.493C371.421 984.493 395.595 966.96 397.406 965.757C399.23 964.541 408.912 957.292 410.716 956.096C412.533 954.866 411.926 948.839 411.926 948.839C411.926 948.839 475.99 933.124 492.935 930.691C509.832 928.293 532.196 919.82 552.154 918.604C572.086 917.402 578.748 919.821 589.619 914.382C600.51 908.943 602.314 906.538 602.314 906.538C602.314 906.538 625.286 899.267 631.326 893.227C637.38 887.18 633.15 884.153 638.589 878.728C644.021 873.276 639.177 857.567 634.353 844.284C629.515 830.974 621.056 824.305 617.428 812.847C613.814 801.354 605.341 780.801 603.53 775.369C601.713 769.93 598.091 768.119 599.287 765.099C600.517 762.072 598.091 752.404 596.267 748.181C594.463 743.938 590.227 739.107 589.619 734.871C589.024 730.634 580.552 730.033 579.342 723.993C578.133 717.967 575.099 711.913 572.086 709.48C569.066 707.069 564.235 702.231 563.025 696.191C561.809 690.143 553.35 689.536 552.756 684.698C552.155 679.874 546.709 675.036 542.486 675.036C538.25 675.036 518.913 652.071 515.278 644.207C511.657 636.349 495.934 624.269 494.725 620.053C493.522 615.817 490.495 616.425 490.495 616.425C490.495 616.425 492.313 612.182 490.495 607.351C488.685 602.52 500.164 601.919 501.38 585.595C502.583 569.293 503.806 560.219 501.38 555.388C498.968 550.543 493.522 549.341 493.522 546.328C493.522 543.301 494.725 533.017 498.346 527.564C501.981 522.126 501.981 516.687 498.968 503.397C495.934 490.087 493.522 467.136 497.752 463.5C501.981 459.872 496.536 456.859 496.536 448.393C496.536 439.927 500.758 422.394 505.596 406.085C510.42 389.768 511.65 364.384 514.069 358.945C516.487 353.506 516.487 340.818 518.906 340.818C521.325 340.818 542.479 349.284 562.424 346.264C562.424 346.264 577.531 345.642 585.984 340.818C594.463 335.994 594.463 335.994 594.463 335.994C594.463 335.994 604.132 339.007 608.976 337.791C613.807 336.582 621.056 335.994 623.475 333.562C625.894 331.15 626.495 329.947 626.495 329.947C626.495 329.947 644.028 334.778 652.494 322.083C660.96 309.387 662.149 264.059 658.534 236.27C654.899 208.453 647.663 184.286 647.663 178.232C647.663 172.185 645.237 169.766 645.237 169.766C645.237 169.766 643.427 146.794 644.028 142.579C644.629 138.349 644.63 129.282 644.63 129.282C644.63 129.282 651.879 131.093 651.879 125.647C651.879 120.208 642.812 112.357 642.812 105.709C642.812 99.0607 642.217 90.5878 645.237 83.9465C648.264 77.3051 651.271 70.6362 649.474 62.7854C647.657 54.9346 646.447 51.3063 646.447 51.3063C646.447 51.3063 645.611 37.6642 643.427 28.9357C640.4 16.8693 633.759 18.6593 631.941 20.4837C631.941 20.4837 627.104 10.8084 624.077 5.96384C621.057 1.14002 612.59 5.96393 613.814 10.2072C615.009 14.4367 616.841 24.7132 616.841 24.7132C616.841 24.7132 608.983 25.9156 609.571 21.0918C610.186 16.2403 612.598 5.38346 607.159 2.34957C601.72 -0.670494 595.672 -0.0624048 595.672 4.78214C595.672 9.59213 596.274 24.7202 596.274 24.7202C596.274 24.7202 587.207 23.5176 579.349 22.3013C571.498 21.0919 560.627 25.9156 560.627 25.9156C560.627 25.9156 566.667 20.4837 560.627 18.0718C554.587 15.6392 532.203 38.0097 528.581 43.4417C524.967 48.8806 524.359 53.117 517.103 61.5898C509.839 70.0418 502.59 80.9127 497.144 85.7573C491.705 90.5811 488.077 100.263 488.077 100.263C488.077 100.263 483.246 99.0607 479.638 103.29C475.99 107.52 469.956 116.601 469.355 122.026C468.747 127.458 468.747 128.681 467.524 133.511C466.328 138.349 463.909 143.187 463.909 143.187C463.909 143.187 460.889 137.727 453.64 127.458C446.376 117.188 426.452 97.2361 417.986 94.223C409.506 91.2029 387.15 80.3114 364.185 91.7974C341.22 103.283 322.491 126.843 318.849 133.505C315.235 140.146 308.573 157.064 312.208 177.023C315.843 196.974 326.099 224.77 326.099 224.77C326.099 224.77 321.869 224.77 323.701 230.195C325.504 235.634 330.342 235.634 330.342 235.634C330.342 235.634 332.747 246.532 335.152 246.532L334.565 247.735Z" fill="black"/>
<path d="M368.414 863.013C368.414 863.013 376.251 901.099 383.521 901.099C390.778 901.099 388.345 897.477 393.183 899.274C398.02 901.099 459.679 870.871 473.57 866.641C487.482 862.412 492.306 856.372 501.988 853.352C511.649 850.325 523.73 847.297 523.73 847.297C523.73 847.297 507.406 826.745 495.934 818.887C484.448 811.029 465.706 796.537 454.849 786.855C443.957 777.18 425.235 759.052 423.418 756.626C421.58 754.214 416.763 749.985 414.344 754.809C411.918 759.66 405.277 773.572 405.277 778.997C405.277 784.429 398.615 788.672 396.797 798.949C395 809.225 386.528 815.272 385.926 823.137C385.325 830.981 379.886 839.44 376.859 846.682C373.853 853.946 368.414 863.013 368.414 863.013Z" fill="white"/>
<path d="M483.419 208.661C483.419 208.661 515.451 203.823 523.91 208.661C532.39 213.485 534.173 227.403 537.207 228.606C540.234 229.822 541.45 231.633 541.45 236.47C541.45 241.308 552.908 248.564 553.523 255.213C554.138 261.84 553.523 263.665 553.523 263.665C553.523 263.665 563.806 260.043 576.488 265.482C589.183 270.921 590.386 272.13 590.386 272.13C590.386 272.13 592.21 269.712 595.832 268.523C599.453 267.3 600.656 240.105 604.899 229.829C609.135 219.538 610.345 188.716 610.345 180.872C610.345 173.001 610.345 169.98 610.345 169.98L608.534 142.192C608.534 142.192 592.211 157.9 574.678 155.481C557.158 153.069 537.206 135.523 533.585 122.233C529.971 108.943 529.356 111.355 529.356 111.355C529.356 111.355 524.525 122.855 522.106 122.855C519.667 122.855 530.565 132.509 515.451 140.374C500.337 148.232 500.337 148.232 500.337 148.232C500.337 148.232 500.337 160.913 496.716 165.751L483.419 208.661Z" fill="white"/>
<path d="M562.432 25.9088C562.432 25.9088 575.099 13.8216 589.626 12.6191C604.132 11.4027 611.99 16.2266 618.638 21.085C625.293 25.9088 637.975 42.8335 638.597 71.2443C639.184 99.6412 626.496 130.471 607.159 143.774C587.823 157.064 576.944 161.902 557.594 154.652C538.25 147.409 528.582 115.363 528.582 111.742C528.582 108.114 527.988 92.3984 544.298 88.1759C560.621 83.9395 571.499 80.9057 573.925 77.2844C576.316 73.6699 572.694 67.6228 569.073 67.6228C565.452 67.6228 548.527 73.0549 546.122 73.0549C543.696 73.0549 558.804 59.7653 566.668 56.144C574.519 52.5088 581.16 48.2931 579.965 40.4354C578.755 32.5639 571.499 36.199 567.262 38.6109C563.04 41.0297 558.209 42.246 558.209 42.246C558.209 42.246 576.945 31.9696 577.539 27.125C578.14 22.3012 574.512 19.8616 570.89 21.6999C567.255 23.5037 562.432 25.9088 562.432 25.9088Z" fill="#FF4000"/>
</svg>
