<?xml version="1.0" encoding="utf-8"?>
<!-- Generator: Adobe Illustrator 15.0.0, SVG Export Plug-In . SVG Version: 6.00 Build 0)  -->
<!DOCTYPE svg PUBLIC "-//W3C//DTD SVG 1.1//EN" "http://www.w3.org/Graphics/SVG/1.1/DTD/svg11.dtd">
<svg version="1.1" id="Layer_1" xmlns="http://www.w3.org/2000/svg" xmlns:xlink="http://www.w3.org/1999/xlink" x="0px" y="0px"
	 width="1220.908px" height="1493px" viewBox="0 0 1220.908 1493" enable-background="new 0 0 1220.908 1493" xml:space="preserve">
<path fill="#040506" d="M244.261,705.328c-1.551,1.723-2.234,4.056-1.859,6.344l35.991,217.852c0.453,2.74,2.383,4.953,4.831,5.892
	l19.428,117.646l2.564,0.529c91.884,19.006,194.586,28.644,305.248,28.644c110.637,0,213.335-9.638,305.248-28.644l2.565-0.529
	l19.429-117.648c2.479-0.939,4.372-3.135,4.829-5.89l35.99-217.847c0.365-2.21-0.273-4.471-1.722-6.18
	c-0.29-0.342-0.636-0.624-0.979-0.905l8.105-49.073l-4.896,0.423c-103.543,8.98-263.395,18.07-368.57,18.07
	c-105.211,0-265.053-9.089-368.572-18.07L237,655.519l8.104,49.067C244.813,704.823,244.514,705.046,244.261,705.328z
	 M352.936,723.482c1.67,0.077,3.338,0.153,5.003,0.229c4.414,0.2,8.902,0.397,13.442,0.595
	c74.253,3.236,142.639,5.066,206.518,5.532c3.057,0.023,6.113,0.044,9.174,0.061c2.221,0.013,4.441,0.024,6.65,0.033
	c5.576,0.022,11.157,0.037,16.741,0.037c5.593,0,11.184-0.015,16.771-0.037c2.155-0.009,4.324-0.02,6.49-0.031
	c3.236-0.018,6.468-0.04,9.699-0.064c56.383-0.417,116.268-1.892,180.611-4.462c55.432-2.197,103.454-4.771,137.875-6.755
	L928.559,920.5c-95.966-2.201-258.159-5.7-318.094-5.7c-59.934,0-222.129,3.499-318.096,5.7l-33.357-201.883
	C283.958,720.046,316.06,721.791,352.936,723.482z M321.143,1048.971c-5.268-19.284-10.832-38.529-16.222-55.908
	c-3.181-10.241-6.469-21.162-9.833-32.633l-4.068-24.637c95.671-2.193,259.304-5.733,319.445-5.733
	c60.143,0,223.776,3.54,319.445,5.733l-4.038,24.45c-3.386,11.545-6.691,22.526-9.889,32.819
	c-5.393,17.382-10.956,36.626-16.224,55.913c-87.697,16.995-184.917,25.628-289.294,25.628
	C506.051,1074.604,408.824,1065.968,321.143,1048.971z M900.094,1198.465l2.948-0.072l1.133-5.054
	c0.012-0.055,0.024-0.112,0.037-0.169l0.022-0.114l-2.486-0.492c0-0.005,0.002-0.013,0.005-0.018l2.486,0.482l-2.486-0.487
	c0.132-0.477,0.256-0.964,0.357-1.423c0.311-1.26,0.604-2.549,0.906-3.885l0.236-1.038c0.415-1.878,0.808-3.809,1.15-5.706
	c0.142-0.673,0.28-1.344,0.365-1.902c0.261-1.299,0.494-2.598,0.728-3.919c1.403-7.943,2.774-17.191,4.081-27.541l0.477-4.026
	c0.703-5.8,1.4-12.193,2.198-20.127c0.251-2.567,0.487-5.114,0.718-7.617l0.067-0.738c0.151-1.482,0.283-2.948,0.412-4.394
	l0.261-3.033c0.079-0.974,0.159-1.938,0.251-2.926l0.082-1.008c0.124-1.523,0.248-3.023,0.343-4.345
	c0.066-0.658,0.114-1.302,0.161-1.935l0.343-4.352c0.05-0.604,0.1-1.207,0.112-1.625c0.156-1.811,0.282-3.569,0.385-5.219
	l0.211-2.94c0.085-1.175,0.164-2.303,0.219-3.313l0.022-0.264c0.072-0.931,0.142-1.838,0.188-2.699l0.266-4.918l-4.828,0.971
	c-3.202,0.644-6.448,1.267-9.697,1.891l-0.591,0.111c-3.45,0.661-6.897,1.294-10.37,1.928
	c-81.877,14.923-172.048,22.809-268.005,23.439l-3.691,0.025l-9.821,367.587l4.076-0.164c80.158-3.234,149.594-14.17,206.376-32.509
	l1.834-0.594l3.581-10.692c17.573-52.471,64.255-191.858,74.394-223.346C899.736,1199.715,899.91,1199.071,900.094,1198.465z
	 M894.276,1190.922l-0.037,0.144l-2.479-0.486c0.037-0.191,0.106-0.365,0.166-0.542
	C892.689,1190.333,893.449,1190.626,894.276,1190.922z M817.921,1421.22l-2.357,7.034c-54.815,17.464-121.548,28.018-198.43,31.386
	l9.408-352.048c94.36-0.808,183.115-8.627,263.919-23.236c-10.729,42.573-18.34,79.645-17.133,89.899
	c0.322,2.784,1.143,9.031,18.571,15.772l-3.5,8.492h3.704C881.631,1230.986,835.39,1369.055,817.921,1421.22z M94.294,964.104
	l5.647,19.081l-12.303-15.639c-10.393-13.209-17-28.974-17.675-42.173c-0.412-8.415-2.582-36.175-5.329-71.32l-0.427-5.467
	c-5.612-71.808-13.299-170.153-13.299-192.378c0-8.024,4.263-16.227,35.888-16.227c4.962,0,10.622,0.217,16.821,0.645l4.004,0.277
	l-0.479,3.985c-4.718,39.184-28.256,235.774-28.256,258.034C78.885,907.08,81.559,921.071,94.294,964.104z M333.229,1077.14
	l-3.131-0.591c-3.472-0.634-6.945-1.267-10.369-1.928c-3.45-0.66-6.873-1.318-10.298-2.002l-4.83-0.964l0.274,4.916
	c0.05,0.909,0.125,1.865,0.204,2.881c0.062,1.081,0.14,2.193,0.223,3.356l0.059,0.834c0.382,5.534,0.867,11.857,1.426,18.599
	c0.071,1.004,0.164,2.029,0.259,3.075l0.441,5.166c0.093,0.838,0.163,1.697,0.255,2.797c0.043,0.388,0.087,0.78,0.118,1.297
	c0.129,1.416,0.258,2.832,0.409,4.245c0.191,2.118,0.406,4.257,0.622,6.398l0.399,3.929c0.18,1.725,0.361,3.445,0.561,5.132
	l0.461,4.242c2.041,17.742,4.256,32.576,6.627,44.268c0.092,0.367,0.167,0.732,0.241,1.085l0.054,0.251
	c0.586,2.866,1.257,5.785,2.057,8.954c0.764,2.916,1.42,5.209,2.066,7.223c10.599,32.839,60.22,181.021,76.527,229.715l1.445,4.316
	l1.833,0.594c52.026,16.806,114.747,27.417,186.421,31.537l3.927,0.227l9.798-366.676l-3.892-0.027
	C502.988,1099.338,414.125,1091.65,333.229,1077.14z M584.093,1458.616c-68.55-4.19-128.661-14.401-178.755-30.362l-0.22-0.658
	c-16.304-48.686-65.916-196.836-76.499-229.63c-0.601-1.875-1.221-4.044-1.941-6.788c-0.023-0.095-0.042-0.179-0.066-0.273
	c19.755-6.855,20.554-13.092,20.986-16.649c1.208-10.28-6.425-47.329-17.158-89.874c80.599,14.557,169.055,22.366,263.033,23.208
	L584.093,1458.616z M937.227,1067.167l-2.794,0.626l-0.629,9.958c-0.134,2.084-0.277,4.347-0.464,6.778l-0.233,3.299
	c-0.104,1.572-0.229,3.199-0.355,4.881l-0.224,2.99c-0.383,4.923-0.814,10.229-1.286,15.653l-0.212,2.226
	c-0.221,2.434-0.457,4.905-0.695,7.409l-0.345,3.626c-0.507,5.117-1.063,10.335-1.672,15.574l-0.531,4.572
	c-0.532,4.48-1.115,8.957-1.719,13.348l-0.609,4.282c-1.011,6.963-2.009,13.033-3.084,18.746c-0.109,0.65-0.224,1.316-0.386,2.089
	c-0.116,0.688-0.263,1.376-0.427,2.163c-0.109,0.611-0.241,1.225-0.418,2.057c-0.628,3.14-1.365,6.386-2.247,9.908
	c-0.84,3.306-1.622,6.063-2.399,8.439c-9.16,28.358-48.425,145.839-71.022,213.228l-2.636,7.852l7.68-3.103
	c20.42-8.249,39.186-17.76,55.779-28.264c56.165-35.559,76.748-75.548,86.658-94.798c8.535-16.587,26.004-65.359,39.153-103.354
	c4.891-14.096,9.794-28.574,13.949-40.879l0.393-1.168c0.859-2.556,1.721-5.116,2.607-7.714
	c3.769-11.247,7.562-22.673,11.354-34.155l3.585-10.885c1.199-3.641,2.394-7.282,3.571-10.919c0.676-2.111,1.368-4.223,2.066-6.334
	l0.28-0.854c0.299-0.954,0.611-1.908,0.927-2.874l2.467-7.588c1.604-4.916,3.185-9.834,4.731-14.68
	c0.981-3.008,1.95-6.016,2.914-9.014l3.832-12.017c1.098-3.438,2.19-6.876,3.262-10.259l2.399-7.598l-7.425,2.894
	C1038.063,1040.831,989.01,1055.588,937.227,1067.167z M986.155,1297.247c-9.585,18.618-29.527,57.361-83.94,91.81
	c-14.096,8.927-29.823,17.126-46.838,24.424c22.901-68.318,59.563-178.044,68.378-205.331c0.827-2.528,1.656-5.447,2.541-8.932
	c0.02-0.077,0.034-0.145,0.052-0.222c6.632,1.232,14.034,2.442,22.472,3.595c12.741,1.729,24.264,2.72,31.613,2.72
	c3.994,0,6.664-0.278,8.699-0.89c5.01-1.552,11.547-6.18,25.434-41.636c2.797,12.108,7.224,21.833,11.376,29.063
	c-0.348,1.004-0.692,2.008-1.04,3.009C1006.155,1249.006,992.763,1284.403,986.155,1297.247z M1096.03,646.392l-0.454-3.775
	l-3.778,0.442c-12.029,1.41-24.637,3.136-37.987,4.964l-3.396,0.464c-11.309,1.561-26.532,3.266-45.243,5.068l-2.921,0.282
	l-7.916,47.922c-2.499,0.942-4.394,3.14-4.846,5.885l-20.73,125.594c-0.335,2.031,0.167,4.11,1.387,5.767
	c0.375,0.507,0.819,0.939,1.296,1.334l-34.466,208.646l5.557-1.289c48.813-11.323,95.15-25.596,137.733-42.413
	c5.457-2.154,10.882-4.673,16.12-7.486l1.379-0.738l0.462-1.492c11.621-37.486,25.565-83.977,25.988-92.771
	C1124.215,880.699,1097.181,655.948,1096.03,646.392z M1014.387,715.546c20.827-1.062,37.399,1.163,48.676,6.39
	c0.273,0.127,0.566,0.242,0.835,0.372c0.166,0.082,0.315,0.174,0.479,0.256c3.544,1.785,6.534,3.878,8.896,6.294
	c0.673,0.688,1.302,1.403,1.886,2.146c4.091,5.208,5.996,11.766,5.816,19.998c-0.166,7.918-1.371,18.341-3.154,29.87
	c-2.295,14.802-5.561,31.423-8.922,47.104c-1.617,7.533-3.251,14.854-4.809,21.619c-0.301-0.229-0.655-0.454-0.98-0.683
	c-0.234-0.164-0.463-0.331-0.708-0.495c-0.383-0.253-0.785-0.504-1.197-0.755c-0.311-0.19-0.634-0.377-0.959-0.563
	c-0.457-0.261-0.914-0.524-1.406-0.785c-0.648-0.343-1.318-0.683-2.015-1.016c-0.332-0.161-0.683-0.32-1.027-0.479
	c-0.753-0.348-1.53-0.69-2.33-1.03c-0.149-0.063-0.291-0.127-0.442-0.189c-17.807-7.409-46.599-12.58-67.931-15.652l18.458-111.788
	C1008.081,715.892,1011.731,715.681,1014.387,715.546z M304.404,1205.787c-0.124-0.385-0.252-0.807-0.377-1.214h2.519l-2.086-7.969
	c-0.129-0.497-0.262-0.996-0.369-1.492l-2.486,0.538c-0.012-0.052-0.023-0.094-0.036-0.151c-0.137-0.526-0.276-1.07-0.406-1.698
	c-0.278-1.21-0.555-2.441-0.838-3.733c-0.105-0.462-0.204-0.929-0.302-1.398l-0.266-1.244c-0.914-4.434-1.818-9.374-2.845-15.542
	c-0.251-1.524-0.502-3.077-0.74-4.738l-0.042-0.256c-0.079-0.47-0.156-0.927-0.231-1.506l-0.446-2.951
	c-0.265-1.969-0.544-3.937-0.827-5.931l-0.595-4.578c-0.431-3.37-0.863-6.793-1.263-10.148c-0.181-1.677-0.361-3.323-0.56-4.911
	c-0.336-3.112-0.652-6.199-0.965-9.267l-0.052-0.505c-0.176-1.609-0.327-3.169-0.474-4.719c-0.056-0.666-0.113-1.331-0.182-1.848
	l-0.456-4.794c-0.255-2.929-0.509-5.782-0.759-8.527c-0.054-0.726-0.108-1.455-0.178-2.081l-0.939-11.756
	c-0.077-1.25-0.181-2.477-0.282-3.646c-0.38-5.33-0.709-10.151-0.964-14.186l-0.491-7.744l-2.791-0.624
	c-51.836-11.592-100.889-26.358-145.794-43.884l-7.427-2.898l2.402,7.603c1.735,5.492,3.52,11.085,5.328,16.754l1.262,3.956
	c1.048,3.299,2.12,6.622,3.198,9.968l1.563,4.854c4.148,12.824,8.398,25.904,12.7,39.014l8.958,27.104
	c0.241,0.774,0.506,1.542,0.756,2.271l-2.413,0.802c2.14,6.473,4.306,12.921,6.448,19.268l2.411-0.813
	c1.326,3.977,2.65,7.929,3.983,11.771c0.316,0.964,0.642,1.92,0.965,2.874l0.79,2.343c0.452,1.355,0.904,2.709,1.361,3.981
	l1.585,4.662c0.925,2.731,1.843,5.437,2.769,8.117v0.002l-2.404,0.83l16.642,48.399v-8.455c11,30.991,22.683,62.319,29.214,75.015
	c9.863,19.212,30.387,59.189,86.635,94.803c16.505,10.449,35.271,19.968,55.773,28.288l7.685,3.12l-2.633-7.866
	C360.353,1374.007,314.467,1236.942,304.404,1205.787z M318.687,1389.057c-54.491-34.498-74.372-73.226-83.929-91.842
	c-6.204-12.057-18.933-45.509-36.001-94.552v-0.251h2.63l-2.962-8.46c-0.591-1.689-1.191-3.433-1.783-5.142
	c3.627-6.841,7.269-15.541,9.694-26.025c13.913,35.429,20.424,40.059,25.435,41.636c2.009,0.611,4.706,0.89,8.724,0.89
	c10.937,0,30.75-2.213,49.267-5.492c0.78-0.139,1.515-0.277,2.27-0.417c0.034,0.137,0.06,0.276,0.096,0.412l1.236,4.76h2.696
	c0.369,1.276,0.729,2.464,1.085,3.563c9.535,29.523,51.169,153.943,68.381,205.358
	C348.444,1406.146,332.719,1397.941,318.687,1389.057z M1169.996,656.208c0,22.186-7.67,120.326-13.269,191.985l-0.422,5.387
	c-2.768,35.39-4.953,63.341-5.365,71.783c-0.678,13.201-7.275,28.966-17.647,42.178l-12.319,15.697l5.66-19.135
	c12.715-42.968,15.385-56.986,15.385-61.182c0-14.26-10.291-108.311-28.231-258.035l-0.477-3.984l4.001-0.277
	c6.2-0.427,11.851-0.645,16.796-0.645C1165.731,639.981,1169.996,648.184,1169.996,656.208z M278.37,1047.696l5.555,1.289
	l-34.455-208.661c0.484-0.397,0.938-0.835,1.315-1.349c1.22-1.657,1.719-3.735,1.384-5.765L231.44,707.667
	c-0.453-2.743-2.348-4.939-4.846-5.88l-7.917-47.95l-2.921-0.281c-18.73-1.801-33.953-3.507-45.249-5.069l-3.823-0.522
	c-13.207-1.806-25.682-3.511-37.58-4.905l-3.778-0.442l-0.454,3.775c-1.151,9.557-28.183,234.295-28.178,256.717
	c0.442,9.028,16.468,61.802,25.982,92.458l0.463,1.492l1.376,0.738c5.341,2.866,10.625,5.315,16.146,7.483
	C183.207,1022.096,229.539,1036.368,278.37,1047.696z M183.536,838.31c-15.622,4.297-23.014,8.194-26.761,11.123
	c-1.098-4.765-2.233-9.813-3.375-15.005c-5.505-25.102-11.121-53.872-12.911-73.904c-0.308-3.457-0.503-6.651-0.563-9.522
	c-0.016-0.758,0.015-1.479,0.033-2.208c0.221-8.321,2.726-14.876,7.685-19.939c0.42-0.43,0.877-0.841,1.335-1.249
	c0.146-0.131,0.278-0.269,0.429-0.396c0.366-0.315,0.765-0.613,1.155-0.915c0.315-0.245,0.624-0.492,0.954-0.728
	c0.346-0.25,0.715-0.488,1.079-0.729c0.423-0.278,0.85-0.556,1.295-0.824c0.321-0.193,0.653-0.38,0.986-0.568
	c0.549-0.308,1.11-0.608,1.69-0.899c0.27-0.137,0.542-0.272,0.817-0.404c0.73-0.348,1.483-0.683,2.258-1.005
	c0.155-0.065,0.307-0.131,0.465-0.196c11.198-4.516,26.977-6.387,46.406-5.394c2.659,0.134,6.315,0.345,10.859,0.611l18.46,111.788
	C220,830.225,200.055,833.66,183.536,838.31z M1193.396,698.265c0.022-0.332,0.048-0.68,0.067-1.008l0.154-2.327
	c1.201-19.168,1.813-32.195,1.813-38.722c0-11.955-4.059-21.51-12.041-28.385c-0.648-0.565-1.327-1.129-2.111-1.724
	c-0.114-0.082-0.233-0.159-0.348-0.241c0.047-3.455,0.104-6.915,0.104-10.345c0-3.942-0.024-7.987-0.102-12.259
	c0.077-0.051,0.179-0.128,0.254-0.204c0.941-0.839,9.157-8.826,9.157-26.655c0-15.846-2.747-25.282-2.849-25.664
	c-0.967-3.255-3.941-5.468-7.325-5.468h-2.136c-13.785-160.16-74.701-296.794-176.414-395.556C902.197,53.158,767.803,0,623.182,0
	c-144.697,0-281,52.65-383.805,148.231C132.705,247.4,68.457,383.856,53.451,543.126c-0.84,0.61-1.551,1.348-2.162,2.136H40.733
	c-3.383,0-6.359,2.213-7.325,5.468c-0.102,0.382-2.849,9.818-2.849,25.664c0,17.829,8.215,25.816,9.157,26.655
	c1.424,1.271,3.23,1.983,5.138,1.983h5.291c-0.051,3.611-0.077,7.096-0.077,10.479c0,0.688,0.019,1.382,0.024,2.074
	c-0.825,0.318-1.648,0.64-2.486,1.01l-3.794,1.673v3.095c-12.165,6.993-18.338,18.011-18.338,32.844
	c0,6.134,0.542,17.97,1.648,36.062l-2.473,2.599l0.267,2.877c0.07,0.743,0.114,1.485,0.162,2.228l0.001,0.024l2.522-0.157
	l0.037,0.567c-28.253,25.76-27.795,34.055-27.599,37.622c0.051,0.891,9.182,90.928,31.691,108.961
	c2.643,2.121,5.332,7.121,7.943,13.922l0.005,0.066c0.163,2.029,0.304,4.039,0.445,6.023l0.042,0.544l-2.539,0.209
	c0.198,2.411,0.38,4.773,0.558,7.091l0.146,3.04l0.698,1.364l1.975-0.996c2.047,25.979,3.284,42.709,3.577,48.383
	c1.165,23.432,15.14,56.785,50.371,82.403l2.584,4.918l1.221,0.874c0.587,0.423,1.184,0.825,1.814,1.162l1.054-1.771
	c3.845,12.29,7.699,24.479,11.356,35.881c0.403,1.23,0.794,2.462,1.182,3.684l0.439,1.384c6.182,19.186,11.602,35.725,15.039,46.209
	c26.772,81.462,62.661,185.597,75.705,210.991c10.914,21.21,33.625,65.343,95.68,104.622
	c71.693,45.395,175.593,70.965,308.956,76.005h1.013l0.072-0.002c133.21-5.038,237.119-30.608,308.842-76.003
	c62.021-39.277,84.733-83.407,95.662-104.642c12.971-25.256,48.896-129.433,75.765-211.104c3.435-10.488,8.837-26.974,14.952-46.057
	l1.147-3.567l2.43,0.78c1.276-3.932,2.551-7.938,3.854-12.047l-2.419-0.777v-0.003c0.554-1.769,1.11-3.539,1.701-5.364
	c0.89-2.819,1.776-5.637,2.688-8.495c0.489-1.521,0.979-3.065,1.466-4.61l0.686-2.173c0.359-1.17,0.725-2.34,1.09-3.507l0.698,1.095
	c0.802-0.497,1.579-1.021,2.382-1.567l1.349-0.946l2.591-4.94c35.218-25.633,49.215-58.996,50.402-82.426
	c0.287-5.551,1.457-21.442,3.683-50.024c0.07-0.852,0.14-1.729,0.191-2.605c0.032-0.224,0.042-0.412,0.045-0.556l0.204-2.606
	c0.094-1.152,0.186-2.314,0.271-3.484c0.156-2.134,0.323-4.295,0.494-6.48c2.61-6.788,5.308-11.78,7.961-13.896
	c22.483-18.008,31.589-108.07,31.666-108.935C1221.084,734.122,1221.499,726.563,1193.396,698.265z M1174.407,850.466l-0.277,3.636
	c-0.358,4.337-0.69,8.569-0.996,12.71c-0.085,1.16-0.174,2.303-0.266,3.433l-0.249,3.1c-0.047,0.895-0.119,1.789-0.193,2.703
	c-2.23,28.631-3.405,44.585-3.696,50.208c-0.932,18.383-10.529,43.472-33.626,65.35l0.396-0.75l-20.521,13.475
	c-0.4,0.263-0.795,0.531-1.19,0.802l-0.998,0.674l0.882,1.381l-0.862-0.442l0.872,0.457l0.475,0.743l-1.101,0.729l-0.41,1.289
	c-0.675,2.116-1.331,4.235-1.981,6.352l-2.517,4.796l1.27-0.842c-0.331,1.043-0.661,2.087-0.993,3.122
	c-0.92,2.879-1.812,5.706-2.69,8.503c-0.589,1.815-1.15,3.601-1.701,5.354l-2.42-0.777c-1.1,3.381-2.165,6.729-3.209,10.013
	l-0.646,2.031l2.414,0.775l-1.135,3.521c-6.125,19.118-11.522,35.586-14.995,46.188c-26.738,81.275-62.49,185.008-75.27,209.891
	c-10.606,20.608-32.678,63.494-92.945,101.658c-70.558,44.656-173.173,69.833-304.984,74.823l-0.718,0.002
	c-131.855-4.985-234.479-30.158-305.02-74.825c-60.3-38.169-82.37-81.055-92.983-101.681
	c-12.831-24.979-48.547-128.667-75.232-209.863c-3.433-10.475-8.848-26.999-15.021-46.16l-0.434-1.363
	c-0.395-1.244-0.793-2.499-1.197-3.729c-2.823-8.808-5.77-18.095-8.739-27.54l1.22,0.805l-2.412-4.603
	c-0.672-2.139-1.342-4.282-2.014-6.431l-0.404-1.292l-1.365-0.906c-0.08-0.053-0.163-0.109-0.245-0.164l1.787-0.959l-1.803,0.949
	c-0.148-0.1-0.312-0.209-0.497-0.338l1.304-2.19L85.29,990.665l0.463,0.882c-23.069-21.854-32.64-46.922-33.554-65.295
	c-0.38-7.367-2.209-31.092-3.69-49.857h0.008h2.543l-0.036-0.713c-0.198-2.561-0.414-5.196-0.632-7.859l-0.09-1.104l-2.531,0.206
	l-0.036-0.457c-0.143-2.01-0.286-4.044-0.452-6.108l-0.539-6.626c-0.076-1.101-0.152-2.196-0.248-3.249l-3.513-45.23
	c-0.229-3.043-0.458-6.104-0.707-9.113c-0.078-1.123-0.158-2.251-0.257-3.312c-1.093-14.212-2.161-28.454-3.179-42.173l-0.695-9.521
	c-0.157-2.156-0.311-4.291-0.472-6.356l-0.483-6.824c-0.154-2.255-0.307-4.486-0.48-6.602c-0.128-2.181-0.282-4.311-0.43-6.313
	c-0.029-0.604-0.06-1.18-0.108-1.642c-0.302-4.306-0.579-8.459-0.828-12.387l0.537,0.504l-0.537-0.51
	c-0.002-0.03-0.004-0.061-0.006-0.091c-0.027-0.572-0.058-1.119-0.104-1.542l2.54-0.157l-1.087-16.999l-2.371,2.493
	c-0.813-13.953-1.211-23.347-1.211-28.5c0-10.284,3.562-18.053,10.708-23.615v1.625l8.923-3.933
	c1.483-0.653,3.091-1.263,4.916-1.863l-0.76-2.424c1.206-0.377,2.434-0.733,3.734-1.064c1.234-0.314,2.519-0.58,3.846-0.846
	c3.912-0.777,8.251-1.319,12.885-1.611l2.601-0.151c0.416-0.023,0.832-0.046,1.481-0.052c0.558-0.031,1.118-0.041,1.677-0.051
	l0.958-0.021c0.909-0.025,1.833-0.022,2.723-0.024c23.458,0,55.32,4.417,86.134,8.688c69.229,9.548,302.369,25.344,437.536,25.344
	c135.155,0,368.283-15.796,437.511-25.344c34.078-4.719,66.189-9.104,90.054-8.638c1.267,0.025,2.486,0.073,3.771,0.15
	c1.141,0.05,2.229,0.124,3.09,0.175c0.179,0.024,0.348,0.036,0.729,0.068c1.075,0.098,2.153,0.196,3.296,0.329
	c0.993,0.092,1.964,0.23,2.913,0.369l0.479,0.078c1.003,0.118,1.982,0.281,3.021,0.478c2.906,0.508,5.688,1.177,8.457,2.034
	c0.82,0.265,1.617,0.53,2.491,0.835l0.368,0.158c0.697,0.257,1.373,0.51,2.021,0.79l0.055,0.026l-0.986,2.333
	c1.479,0.637,2.802,1.292,4.052,2.002l1.267-2.205c0.01,0.006,0.022,0.011,0.032,0.018c0.646,0.355,1.267,0.732,1.897,1.154
	c0.616,0.401,1.252,0.851,1.761,1.214c0.566,0.431,1.11,0.886,1.649,1.355c6.331,5.452,9.409,12.85,9.409,22.619
	c0,6.368-0.606,19.234-1.796,38.222l-0.156,2.354c-0.085,1.429-0.185,2.86-0.286,4.332l-0.233,3.489
	c-0.149,2.31-0.303,4.675-0.472,7.121l-0.425,6.17c-0.08,1.131-0.162,2.273-0.233,3.417l-0.236,3.308
	c-0.111,1.539-0.224,3.096-0.325,4.648l-0.025,0.354c-0.119,1.676-0.235,3.375-0.38,5.14c-0.283,4.026-0.588,8.14-0.894,12.3
	l-0.586,7.97c-0.341,4.627-0.684,9.314-1.039,14.016l-1.979,25.935c-0.153,1.771-0.283,3.517-0.409,5.266l-2.772,35.665
	C1175.17,840.868,1174.79,845.724,1174.407,850.466z"/>
</svg>
