<?xml version="1.0" encoding="UTF-8"?>
<!DOCTYPE svg PUBLIC "-//W3C//DTD SVG 1.1//EN" "http://www.w3.org/Graphics/SVG/1.1/DTD/svg11.dtd">
<!-- Creator: CorelDRAW -->
<svg xmlns="http://www.w3.org/2000/svg" xml:space="preserve" width="1.70666in" height="1.70666in" version="1.1" style="shape-rendering:geometricPrecision; text-rendering:geometricPrecision; image-rendering:optimizeQuality; fill-rule:evenodd; clip-rule:evenodd"
viewBox="0 0 1707 1707"
 xmlns:xlink="http://www.w3.org/1999/xlink">
 <defs>
  <style type="text/css">
   <![CDATA[
    .fil0 {fill:white}
   ]]>
  </style>
 </defs>
 <g id="Layer_x0020_1">
  <metadata id="CorelCorpID_0Corel-Layer"/>
  <path class="fil0" d="M1565 1707l-1423 0c-66,0 -119,-54 -119,-119l0 -1469c0,-66 53,-119 119,-119l124 0 0 376c0,56 45,101 101,101l389 0 195 0 389 0c56,0 101,-45 101,-101l0 -376 124 0c65,0 119,53 119,119l0 1469c0,65 -54,119 -119,119zm-351 -70c0,0 0,0 0,0 -53,0 -114,-35 -123,-134 -7,-74 21,-138 46,-195 44,-99 73,-165 -88,-249 -110,-56 -128,-185 -99,-281 31,-104 125,-171 238,-171 105,0 204,56 265,151 62,96 138,318 -48,726 -42,93 -117,153 -191,153zm-721 0c-74,0 -149,-60 -191,-153 -186,-408 -110,-630 -49,-726 61,-95 160,-151 265,-151 114,0 208,67 239,171 29,96 10,225 -99,281 -161,84 -132,150 -88,249 24,57 52,121 45,195 -9,99 -69,134 -122,134zm25 -990c-91,0 -178,49 -231,133 -57,89 -127,297 51,688 41,89 107,129 155,129 47,0 77,-36 83,-98 6,-64 -19,-120 -43,-175 -43,-98 -88,-200 107,-300 89,-46 103,-154 79,-234 -27,-89 -104,-143 -201,-143zm670 0c-97,0 -173,54 -200,143 -24,80 -10,188 79,234 195,100 150,202 107,301 -24,54 -49,110 -43,174 6,62 36,98 83,98 0,0 0,0 0,0 47,0 114,-40 154,-129 179,-391 109,-599 52,-688 -54,-84 -140,-133 -232,-133zm-882 -647l1095 0 0 376c0,34 -27,61 -61,61l-371 0c-9,-48 -47,-87 -96,-95l0 -190c0,-11 -9,-20 -20,-20 -11,0 -20,9 -20,20l0 190c-48,8 -87,47 -95,95l-371 0c-34,0 -61,-27 -61,-61l0 -376zm622 437l-149 0c9,-33 39,-57 74,-57 36,0 66,24 75,57z"/>
 </g>
</svg>
