<?xml version="1.0" encoding="UTF-8"?>
<svg version="1.0" xmlns="http://www.w3.org/2000/svg"
 width="1280.000000pt" height="1280.000000pt" viewBox="0 0 1280.000000 1280.000000"
 preserveAspectRatio="xMidYMid meet">  <defs>
    <style>
      .cls-1 {
        fill: #000;
        stroke-width: 0px;
      }
    </style>
  </defs>
  <path class="cls-1" d="M340.73,320.1c1.45-1.71,3.25-2.71,5.46-2.75,1.56.89.34,2.65,1.63,3.87.59.51,1.43.38,2.2-.36.58-.56,1.1-1.17,1.63-1.77,10.72-12.03,24.45-15.9,39.87-13.82,14.9,2.02,27.26,9.02,36.5,21.13.89,1.17,1.82,2.3,2.78,3.51.68-1.13-.26-1.79-.65-2.48-7.07-12.37-17.99-19.89-31.23-24.25-10.16-3.35-20.45-3.42-30.79-.44-6.03,1.74-11.32,4.69-16.02,8.79-.98.85-1.75,1.99-3.45,2.58.28-1.45,1.2-2.19,1.98-2.98,6.6-6.78,14.79-10.62,24-11.88,14.21-1.95,27.79.14,39.87,8.41,15.17,10.39,23.91,24.82,26.4,43.05.07.51.2,1.02.35,1.79,2.92.33,5.8.68,8.69.98,11.81,1.22,21.8,6.23,29.85,14.84,11.03,11.79,14.73,25.7,11.13,41.49-.8,3.52-2.15,6.87-3.46,10.51,3.72,10.99,7.42,22.14,11.28,33.24,2.06,5.93,4.3,11.8,7.17,17.4,2.02,3.94,4.15,7.78,7.23,11.02.53.56,1.26,1.05,1.18,2.18-3.9.22-7.83.45-11.75.67-.03.24-.06.47-.09.71,4.94,1.19,9.87,2.38,14.81,3.56.65.16,1.31.32,1.97.37,5.47.4,8.66,3.67,10.72,8.4.75,1.71,1.6,3.39,2.19,5.16,2.16,6.49,5.49,12.4,9.39,18.27-.11-1.73-.16-3.46-.34-5.17-.19-1.84-.49-3.67-.75-5.59,5.35,6.07,5.81,16.67,1.71,37.98,4.09-5.25,6.65-15.1,7.4-28.53,22.31,4.84,43.92,11.34,61.93,26.28,2.29,1.9,4.94,2.57,7.72,3.01,9.76,1.55,19.53,3.1,29.3,4.62,15.24,2.36,29.38,7.86,42.93,15.02,5.67,3,11.38,5.92,17.21,8.6,6.91,3.17,14.17,4.79,21.68,5.32,6.39.45,12.8.6,19.17,1.44.2.03.44-.22.94-.5-3.81-5.87-8.82-10.18-15.07-13.28-6.45-3.2-12.92-2.42-20.45-.78,8.13,2.49,15.92,3.27,22.72,7.26-1.1.85-1.89.07-2.7-.23-3.15-1.15-6.38-2-9.72-2.34-11.22-1.16-21.51-5.16-31.43-10.26-6.06-3.12-12.06-6.34-18.24-9.21-13.67-6.35-28.07-10.26-42.86-12.87-4.73-.84-9.46-1.72-14.2-2.51-2.99-.5-5.48-1.97-7.97-3.59-9.88-6.42-20.1-12.24-31.36-15.93-9.15-3-18.58-4.93-28.02-6.74-.71-.14-1.58.18-2.17-.8,1.2-1.12,2.75-.87,4.13-.94,12.33-.61,24.21,1.44,35.65,6.11,8.35,3.41,15.92,8.18,23.3,13.25,3.53,2.42,7.24,3.71,11.46,4.29,14.03,1.95,27.99,4.19,41.37,9.2,8.67,3.25,16.92,7.28,24.86,12,6.31,3.75,12.41,7.9,19.49,10.18,1.01.33,2.03.65,3.06.92.22.06.5-.11.98-.23,1.91-7.15,5.73-13.21,12.49-18.45-2.65,5.11-4.86,9.41-5.45,14.37,1.66.74,3.24.28,4.77.53.74-1.97,1.32-3.73,2.04-5.42,3.21-7.45,9.25-11.94,16.29-15.27,4.94-2.34,9.99-4.45,15.22-6.77-.8-.43-1.32-.7-2-1.06,4.89-2.16,9.62-4.25,14.68-6.47-2.43-1.55-5-.29-7.79-1.5,7.26-2.25,13.55-1.56,19.31,2.57,5.73,4.11,9.64,12.33,8.71,17.93-.99.26-1.96.34-2.71,1.48-3.37,5.12-7.29,9.86-10.59,15.05-6.88,10.82-13.82,21.6-21.82,31.2-.37,1.51.23,2.48.51,3.48,2.9,10.63-4.18,24.77-14.28,29.05-5.5,2.33-11.14,3.64-17.07,3.99-11.58.68-22.52-1.64-33.13-6.31-18.04-7.92-18.09-7.79-37.95-7.57-4.26.05-8.51,0-13.42,0,4.89,6.16,9.61,11.55,14.92,16.41,8.49,7.78,17.9,13.97,29.18,16.93,3.65.96,5.57,3.49,6.56,6.9.33,1.14.46,2.33.71,3.68,2.11-3.92.57-9.89-4.49-17.24,3.58,0,6.83-.09,10.07.02,7.68.25,15.13,1.66,22.24,4.64,3.72,1.56,7.18,3.51,10.13,6.35,2.25,2.16,4.82,3.69,8.05,4.11,3.93.52,7.65,2.22,12.16,2.56-2.5-2.93-5.85-3.83-8.71-6.29,4.8.78,9.01,1.79,12.91,3.87,3.32,1.77,5.67,4.39,7.11,7.86,2.02,4.87,2.15,9.89,1.02,14.95-.7,3.14-2.61,5.51-5.35,7.21-1.29.81-2.63,1.23-4.18,1.04-7.85-.98-15.75-.7-23.63-.74-13.77-.07-27.54-.06-41.31-.04-1.99,0-4.01-.26-6.01.39-3.87,7.78-11,8.93-18.43,8.25-10.43-.95-19.99-4.67-28.2-11.36-5.71-4.65-12.37-7.34-19.24-9.59-2.98-.98-6.13-.56-9.16-.16-8.66,1.12-16.7-.87-24.56-4.27-16.79-7.27-31.38-17.67-44.15-30.7-3.37-3.44-6.8-6.82-10.04-10.37-3.11-3.4-6.62-6.24-10.63-8.44-15.61-8.59-29.16-19.78-41.4-32.88-12.13-3.91-23.85-9.03-34.85-15.76-8.6-5.26-16.23-11.77-23.8-18.32-9.41-8.14-18.78-16.29-29.47-22.77-.99-.6-2.12-1.13-2.71-2.47,3.25-.9,6.31.99,9.54.41.85-2.9.61-5.85.78-8.75.07-1.12-.69-1.98-1.33-2.85-5.3-7.24-9.73-15.02-14.15-22.8-1.44-2.52-3.18-4.53-5.69-6-3.79-2.23-7.49-4.62-11.3-6.98-4.59,1.66-9.39,2.06-14.4,2.99,2.87,8.18,6.88,15.38,13.2,21.21.03-2-1.8-3.25-2.07-5.4,2.74-.58,5.44-1.15,8.46-1.79,4.92,6.07,8.5,13.1,13.41,19.56-2.12,1.05-4.22.27-6.02,1.08-.47,1.61,1.61,1.86,1.77,3.67-4.46-2.91-8.36-6.04-12.21-9.24-2.67-2.22-5.4-4.38-8-6.68-5.86-5.18-12.9-7.32-20.45-8.34-2.19-.29-4.5-.31-7.39-2.09,5.2-.19,9.47-.43,14.07-1.64-7.49-8.74-11.99-18.88-17.29-28.56-1.99-3.64-4.4-7.01-6.99-10.26-6.8-8.54-15.59-13.64-26.34-15.41-.51-.08-1.07-.12-1.57-.92,4.01-7.05,9.63-12.67,16.8-16.95-2.07,3.45-3.43,7.09-3.79,11.17,2.86-3.87,5.68-7.75,9.26-10.97,3.73-3.35,8.1-5.63,12.7-7.53,4.56-1.88,9.29-3.21,14.85-4.3-3.07-1.89-5.76-1.97-8.47-1.89-8.83.26-17.2,2.21-24.84,6.8-.34.2-.71.36-1.08.51-.09.04-.23-.05-.35-.08,6.76-7.48,17.33-9.84,30.02-11.74,2.65,1.86,5.57,3.75,8.3,5.87,12.29,9.52,26.36,15.11,41.28,18.79,2.88.71,5.63,1.64,8.25,3,3.44,1.79,6.88,3.57,10.33,5.32,13.38,6.78,27.61,9.88,42.57,9.55,6.23-.14,12.13-1.66,17.64-4.71,12.2-6.76,10.15-20.47,3.68-26.93-3.74-3.73-8-6.65-12.63-9.11-4.11-2.18-8.25-4.3-12.22-6.93,3.2.46,6.41.92,9.58,1.38.28-1.04-.4-1.1-.78-1.27-8.48-3.81-17.37-6.12-26.6-7.08-3.45-.36-6.95-.75-10.4-.59-6.72.31-12.45-2.49-18.64-5.16,6.75-9.04,15.35-15.03,25.67-18.8-3.4,4.13-6.42,8.37-7.38,13.88,7.59-8.83,17.2-14.25,28.34-16.82,11.19-2.58,22.24-2.44,32.72,3.42-2.63-3.53-5.95-6.13-9.72-7.91-17.82-8.41-35.52-9.1-52.81,1.5-8.32,5.1-15.32,11.61-20.3,20.12-.19.33-.51.58-.86.97-4.17-2.44-8.31-4.87-12.65-7.41-2.2-4.48-4.47-9.09-6.1-14.24,4.18-.7,8.07.42,11.88-.48,3.98-.93,6.44-4.18,9.8-6.16,1.32-3.75.16-7.24-2.33-9.6-3.13-2.95-4.36-6.57-5.66-10.32-.39-1.13-.55-2.34-1.39-3.12-11.57-7.64-24.45-11.11-37.95-12.36-.96.47-1.73.96-2.01,1.86-.03.62.42.74.76.76,5.62.36,11.1,1.54,16.56,2.85,6.83,1.63,13.13,4.43,19.14,8.81-2.7,2.3-5.46,4.53-7.51,7.42-2.01,2.83-4.08,5.61-5.5,8.62-1.22.7-2.2.55-3.43-.15.75-5.32,2.49-10.4,4.02-15.18,1.91-1.06,3.33,1.17,4.83.03.03-1.45-1.03-1.7-1.81-2.04-10.89-4.61-22.07-7.23-33.96-4.75-3.45.72-6.62,2.08-9.43,4.22-.82.63-1.65,1.32-1.19,2.53.44.05.77.19.91.08,6.86-5.27,14.81-5.79,22.92-4.98,5,.5,10.05,1.23,15.2,3.39-1.5,5.46-2.97,10.8-4.57,16.6-9.14-.83-18.17-.99-27.22-.95-.86-1.38-1.36-2.97-3.27-3.77-.68,1.11.42,2.64-1.25,4.12-1.16.73-3.53-.32-5.55,1.5-.42-3.87,2.55-5.93,3.09-9.02-1.15-2.21-4.08-3.43-4.31-7.23,1.5-4.01,3.73-8.5,6.44-12.36,2.33-1.46,4.77-1.25,6.9-2.3.8-.93,1.65-1.94,2.51-2.94-.51,1.76-1.02,3.51-1.58,5.44-2.08-.15-4.19-.72-6.12.44-1.33,1.07-1.56,2.56-2.01,4.49,3.47-1.98,6.8-2.76,10.24-3.38,1.38-2.76,3.68-5.02,3.72-8.46-1.74.32-2.84,1.52-4.36,1.57ZM451.78,550.28c8.53-6,17.17-11.55,25.56-18.32-4.29-3.55-7.4-7.7-11.11-11.2-3.14,1.6-5.31,4.11-8.34,5.37-1.38-.96-2.35-2.22-3.4-3.42-6.72-7.69-11.95-16.39-17.06-25.18-5.03-8.65-10.15-17.26-15.04-25.56-5.82-2.56-11.11-5.1-16.76-7.09-3.19,1.67-6.41,3.29-9.56,5.02-3.27,1.79-6.48,3.68-9.74,5.53-.65,4.54-1.28,8.89-1.94,13.5,2.4,3.94,4.19,8.38,7.04,12.3,3.41-1.63,6.84-2.28,9.79-4.05-.81-2.78-2.87-4.81-2.87-7.91,4.05-1.92,8.12-3.83,12.23-5.78.47.62.85,1,1.08,1.46,4.07,8.13,8.87,15.85,13.37,23.74,4.2,7.36,9.3,14.02,15.64,19.68,1.76,1.58,3.44,3.25,5.15,4.87-1.91,2.4-4.94,2.82-6.05,4.58,4.06,4.21,7.93,8.22,12.01,12.45ZM376.14,435.56c-.5-1.13-1.27-.94-1.88-1.12-.52-.15-1.03-.25-1.65.26-2.15,4.4-3.35,9.44-6.01,14-4.72-5.54-8.13-11.95-12.01-22.37-2.63,9.32,4.55,25.94,13.9,32,3.02-7.57,5.88-15.16,7.65-22.77ZM408.28,545.92c5.41,4.17,9.79,9.41,15.72,13.11,3.04-.63,6.27-.77,9.64-1.97-5.4-5.03-10.43-9.72-15.45-14.39-3.27,1.56-6.37,2.7-9.91,3.25ZM341.6,349.22c1.56-2.3,2.97-4.21,3.18-6.59-3.85-4.93-8.32-5.03-11.46-.12,2.54,2.2,5.04,4.52,8.29,6.7ZM613.38,609.85c9.66,4.41,19.72,7.01,30.41,6.6-10.11-2.32-20.37-3.9-30.41-6.6Z"/>
  <path class="cls-1" d="M135.65,298.32c1-1.43,2.28-1.3,3.85-1.31-6.12-13.03-8.48-26.31-7.26-40.15.55-6.28,2.1-14.78,4.56-18.26,3.21-2.31,6.95-3.73,10.91-4.47,8.68-1.61,17.41-2.78,26.25-3.09,2.66-.09,5.31-.13,8,.26-6.03-4.85-13.1-6.56-20.6-6.97-7.51-.41-14.49,1.12-20.52,6.06,2.89-6.98,6.94-12.93,13.17-17.25,3.34-2.31,6.84-2.86,10.6-1.19,1.58.7,3.24,1.32,4.68,2.26,22.67,14.8,34.51,35.4,32.33,62.8-1.07,13.42-6.1,25.67-14.76,36.19-2.47,3-5.37,5.58-8.7,7.64-.99.61-2.21.95-2.98,2.3,1.46,1.44,3.32,1.95,5.36,2.32,1.11-.73,2.21-1.46,3.48-2.29,1.39-2.72,2.85-5.57,4.32-8.42,1.17-2.27,2.51-4.41,4.43-6.14,1.48-1.33,3.17-1.94,5.16-1.68,2.35.31,3.84,1.85,4.07,4.22.16,1.64-.23,3.16-.94,4.65-1.72,3.62-3.4,7.25-5.05,10.9-.88,1.95-1.37,4.02-1.75,6.14-.33,1.86-.05,3.4,1.1,4.87,2.76,3.53,4.16,7.45,3.07,11.83.56,1.41,1.04,2.65,1.58,4.01-1.19,3.61-3.85,6.27-6.33,9.05-1.6,1.79-3.35,3.45-4.76,5.41-1.77,2.46-2.01,5.17-1.56,8.03.08.53.37,1.01,1.02,1.05.18-.15.53-.3.53-.45.03-4.7,2.18-8.41,5.26-11.78,2.96-3.24,6.1-6.38,7.84-11.03,2.75,2.84,4.67,5.57,5.77,8.37.2,3.31-2.71,4.24-3.68,6.37-.15,1.67,1.01,2.73,1.76,3.95,6.84,11.06,15.15,21.02,23.44,30.99,6.58,7.91,13.53,15.51,19.51,23.92,4.26,6,7.96,12.35,11.69,18.68,1.78,3.02,4.12,5.56,6.92,7.93-.9-3.32-1.8-6.64-2.79-10.29,1.24,1.1,2.2,1.95,3.15,2.8,3.42.35,6.74-.15,10.06-.36,7.56-.47,14.93.42,22.11,2.88,7.02,2.41,12.92,6.4,17.41,12.32,5.43,7.15,9.2,15.01,9.8,24.14.09,1.33.05,2.68-.08,4-.52,5.24-3.98,8.56-9.21,8.69-6.87.17-13.56-.94-20.11-3.04-9.32-2.98-18.14-7.14-27.04-11.13-8.53-3.83-17.09-7.59-26.16-9.99-2.23-.59-3.87-1.77-4.94-3.75-3.82-7.1-8.89-13.32-13.91-19.57-10.97-13.66-19.38-28.76-25.44-45.21-2.95-8.01-6.33-15.86-9.93-23.66-1.93-.45-3.84.94-5.6-.28-2.76-2.54-4.78-5.7-6.74-8.87-1.92-3.11-1.1-6.44-.15-9.81-6.05-6.4-11.22-13.59-17.88-19.42-1.71-1.5-3.3-3.06-3.92-5.43-.41-1.56-1.75-2.66-2.76-3.89-3.22-3.92-6.38-7.9-9.68-11.76-5.09-5.94-6.72-13.24-8.26-20.58-.27-1.3-.18-2.66.32-3.54ZM152.72,304.4c-2.44.56-4.61-.73-7.03-.08,4.76,8.62,9.27,16.97,12.9,25.71,3.13,7.52,8.07,13.67,13.23,19.99,0-1.57-.81-2.65-1.4-3.78-3.04-5.79-6.2-11.52-9.17-17.34-2.37-4.63-4.7-9.28-6.17-14.31-.64-2.21-.95-4.44-.67-6.72.46-3.75,1.84-4.79,6.08-4.51,1.81,1.68,3.11,3.77,4.05,6.18,2.36,6.1,4.98,12.08,8.23,17.77.87,1.51,1.6,3.15,3.39,4.64-.5-3.02-.82-5.54-2.46-7.6-2.45-3.08-3.54-6.85-5.27-10.29-.36-.71-.59-1.51.19-2.38,7.1-1.25,14.05-3.26,19.85-9.22h-24.39c-4.52-2.85-6.09-2.58-11.34,1.95ZM152.32,252.21c1.45-1.39,3.98-.32,4.11-2.86-1.36-1-2.88.31-3.98-.71-.37-.66-.33-1.28.36-2.16.55-.78,2.51.19,3.09-1.61-1.67-.61-3.68.01-4.93-2.66-.3,3.04-2.64,2.79-3.7,3.88.16.68.43.88.87.92.51.05,1.08.06,1.22.61.27,2.11-1.89,1.63-2.56,2.66-.19.29-.16.72-.21,1,.66,1.06,1.92.23,2.73,1.28.14.52.33,1.27.08,1.72-.79,1.33-2.71.6-2.83,2.29.34,1.66,2.35.25,2.9,1.74.11.49.25,1.14-.3,1.8-.61.82-2.55.02-2.53,1.73.55,1.78,2.37-.13,3.09,1.36.02.5.05,1.15.07,1.48-.64,1.56-2.54.84-2.93,2.36.37,2.3,2.76-.1,3.5,1.48.18.7.36,1.48-.11,2.18-.82.82-2.46.46-2.75,1.93.9,1.49,2.76-.03,3.63,1.48.03.53.06,1.18.08,1.59-.69,1.46-2.92.54-3,2.42.65,1.82,4.27-.64,3.84,2.65-.6,1.15-2.41.56-2.74,1.99.58,1.91,2.46.47,3.56,1.51.18.58.42,1.33.61,1.95-.52,1.33-2.56.41-2.67,2.15.88,1.4,2.58.2,3.63,1.06,1.13.82.72,2.62,2.11,3.27.8-1.26-.5-2.59-.06-3.51.95-1.51,2.85-.71,3.52-2.26-1.11-1.28-2.96.17-4.02-1.16-.42-.8-.74-1.64-.18-2.47,1.06-1.02,3.52.03,3.47-2.47-1.36-1.13-2.99.49-4.28-.63-.43-.53-.58-1.11-.17-1.79.97-.86,2.8.12,3.39-1.56-.53-2.44-2.87-.55-3.97-1.65-.51-.7-.62-1.43-.22-2.15.94-1.18,3.53.09,3.51-2.36-1.18-1.11-2.75.08-3.86-.9-.51-.67-.79-1.39-.43-2.16.89-1.25,2.74-.14,3.59-1.68-.4-2.44-2.83-.52-3.86-1.73-.26-.64-.72-1.35.07-2.26.5-.12,1.14-.28,1.78-.45.72-.19,1.67-.03,1.84-1.21-1.03-1.69-3.12.13-4.27-1.26-.01-.48-.29-1,.09-1.5.95-1.22,2.91-.37,3.69-1.6.17-.83-.11-1.23-.58-1.51-1.04-.24-2.11.6-3.1-.14-.5-.76-.5-1.5-.2-2.11Z"/>
  <path class="cls-1" d="M333.46,403.1c-3.1.78-5.69,1.89-8.56,1.95-5,.1-7.47-1.43-9.02-6.15-1.7-5.19-3.92-10.25-4.06-16.04-9.73-8.35-19.45-16.69-29.21-25.07-1.11.76-2.08,1.42-2.97,2.03-3.56.08-6.14-1.7-7.98-4.2-2.05-2.81-4.8-4.58-7.66-6.54-6.62-.06-12.83-2-18.67-5.13-3.72-1.99-7.64-2.23-11.69-1.81-2.8.29-5.6.48-8.41.21-3.33-.32-5.32-1.76-5.77-4.06-.52-2.69,1-5.37,3.85-6.81,2.09-1.05,4.35-1.23,6.63-1.3,2.54-.08,5.1.04,7.6-.32,4.48-.65,6.53-3.6,5.49-8.01-1.31-5.55-4.47-10.24-7.64-14.87-.56-.81-1.67-1.33-2.62-1.78-4.6-2.19-8.71-5.22-13.06-7.82-2.07-1.24-3.98-2.73-4.81-5.18.05-2.11,1.29-3.09,3.44-3.5,12.16,4.11,22.14,12.23,32.57,19.62-1.3-2.36-3.27-4.04-5.4-5.46-8.44-5.63-15.25-12.94-21.67-20.67-1.19-1.44-2.35-2.92-3.37-4.49-1.73-2.69-1.46-3.62,1.77-6.09,4.12,1.49,7.88,3.99,11.29,6.96,5.45,4.74,10.44,9.97,15.23,15.37,1,1.13,2.07,2.2,3.34,3.06-6.95-10.93-15.61-20.11-26.78-25.99-.7-1.06-.55-1.73-.44-2.38.11-.65.27-1.3.42-1.96,2.37-1.53,4.11-.42,5.64,1.25,3.15,3.45,6.34,6.89,9.35,10.47,5.69,6.75,11.14,13.69,15.2,21.58.74,1.44,1.72,2.71,2.79,3.9,7.01,7.81,11.4,17.4,17.5,24.98.43,2.75-1.14,4.12-1.51,5.99,1.54-.74,2.72-1.8,3.42-3.24.33-1.99-2.14-3.35-.85-5.55,1.38-1.04,2.9-.57,4.31.26,5.45,3.21,10.45,6.95,14.08,12.27.96,1.4,2.09,2.69,3.2,4.1-1.87.54-4.04-1.44-5.6.97.85,1.57,2.46,2.02,3.86,2.67,12.01,5.55,24.19,10.69,36.6,15.27,19.37,7.16,37.6,16.64,55.5,26.83,2.54,1.45,4.86,3.31,7.16,5.13,3.75,2.97,8.02,4.7,12.6,5.89,6.45,1.67,12.92,3.21,19.6,4.1-2.99-1.51-5.98-3.03-9.76-4.94,8.12,1.19,15.24,2.59,21.37,7.01,8.88,6.4,13.16,14.97,11.69,25.95-1.15,8.59-6.58,13.2-15.34,13.25-8.1.04-15.91-1.71-23.48-4.53-2.63-.98-5.27-1.98-7.78-3.22-10.35-5.11-21.49-8.07-32.25-12.08-8.55-3.19-16.64-7.26-24.19-12.41-4.85-3.31-9.74-6.56-14.96-9.49ZM256.37,340.75c.05-.92-.16-1.65-1.26-1.76.26.72.31,1.58,1.32,1.7-.01,1.57.67,2.58,2.66,3.13-.87-1.45-1.3-2.68-2.73-3.07ZM392.35,401.23c.51-1.18.03-1.52-.28-1.89-1.93-2.23-4.13-4.18-6.51-5.89-12.49-8.97-25.96-16.17-40.16-22.04-.39-.16-.93-.42-1.2.35,16.57,8.84,33.03,17.84,48.15,29.46ZM278.55,354.22c.65-3.29,1.59-6.15,3.3-8.68,1.7-2.52,3.81-4.71,5.89-6.94-4.35,1.12-7.62,4.29-9.39,9.04-.74,2-2.03,4.15.2,6.58ZM316.33,387.64c1.22,3.66,1.39,6.71,3.23,9.29,1.69-.03,2.82-.83,3.88-2.07-1.95-2.4-4.06-4.57-7.12-7.22ZM329.48,400.46c-1.07-1.47-2.19-2.22-3.59-2.51-1.35.63-2.79.97-3.27,2.69,2.35,1.24,4.42.47,6.86-.18Z"/>
  <path class="cls-1" d="M791.51,698.62c3.15-3.95,6.18-8.15,8.04-13.07,1.57-4.13,1.2-8.16-1.16-11.91-2.79-4.44-6.75-7.52-11.57-9.51-.7-.29-1.67-.05-2.1-1.41,5.47-2.96,11.27-4.06,18.2-2.58-6.16-4.29-7.37-4.25-21.8-.04,4.08-3.79,9-6.33,14.02-8.6,5.18-2.35,10.61-3.7,15.93-2.51,2.03-.75,2.43-2.69,3.96-3.3,1.35-.14,1.92.7,2.35,1.63.2,1.51-1.02,2.56-.93,4.07.88,1.57,2.44,2.61,3.7,3.81,1.36.02,1.76-1.42,2.89-1.48,1.44-.06,2.12.9,2.68,1.98.24,1.77-1.43,2.43-2.16,3.62,1.1,2.49,2.17,4.91,3.29,7.44,1.34.2,2.11-1.39,3.77-.79,1.13.47,1.47,1.59,1.09,2.66-.67,1.62-2.15,1.73-2.81,2.77-1.83,11.65,6.9,27.27,18.94,33.53,1.22-.4,2.48-2.76,4.34-.49.96,1.86-.32,3.34-1.39,4.76.71,1.77,1.73,3.16,2.75,4.48,1.2.87,2.4-.55,3.12-.06,1.47.69,2,1.56,2.15,2.21.07,1.98-1.47,2.21-2.23,3.24.76,1.49,1.54,3.02,2.22,4.37,1.36,1.05,2.43-.89,3.25-.14,1.51.67,1.87,1.57,1.7,2.61-.37,1.34-1.77,1.32-2.48,2.35-.29,2.08.75,3.98,1.39,5.96,1.57.8,2.85-1.03,5.06.18.14.09.49.87.25,1.85-.82,1.78-2.65,1.63-3.92,2.07-.7,1.22-.35,2.31-.45,3.35-.51,5.43-4.18,8.42-9.56,7.8-2.17-.25-4.12-1.05-5.99-2.13-3.37-1.95-6.36-4.42-9.33-6.91-7.16-6.01-14.29-12.07-21.42-18.11-9.71-8.22-20.14-15.43-30.9-22.18-1.19-.75-2.7-1.21-3.48-2.88,2.92.1,5.43,1.9,8.59,1.37Z"/>
  <path class="cls-1" d="M756.97,784.21c-2.66,0-5.33-.05-7.99,0-26.85.64-53.71,1.19-80.56,1.97-36.33,1.05-72.66,2.16-109.02,2.5-29.54.27-59.07.5-88.6.14-27.53-.33-55.05-.77-82.57-1.51-28.72-.77-57.43-1.81-86.15-2.43-8.22-.18-16.44-.6-25.5-.95,7.62-1.08,14.43-.97,21.24-1.05,30.6-.39,61.18-1.64,91.77-2.38,37.01-.9,74.02-1.73,111.04-1.83,36.22-.09,72.43.49,108.64,1.16,18.7.35,37.41.83,56.11,1.46,26.98.92,53.97,1.29,80.96,1.73,3.55.06,7.1.44,10.65.68,0,.17,0,.34,0,.5Z"/>
  <path class="cls-1" d="M861.01,515.23c.92.41,1.37,1.14,1.22,2.36-.01.92-1.36,1.05-1.55,1.93.59,1.99,1.29,3.88,1.68,5.83.88,4.3-.86,7.97-4.68,10.14-3.36,1.91-7.06,2.39-10.84,2.42-5.88.04-11.76-.09-17.64.02-9.57.18-18.84,1.97-27.79,5.39-.85.32-1.71.6-3.47,1.22,1.41-1.47,2.2-2.26,2.95-3.09.81-.89,1.64-1.77,2.34-2.73,4.73-6.48,4.02-13.75-2.01-19-7.01-6.1-15.18-7.41-24.04-5.32-4.63,1.09-8.75,3.22-12.74,6.62-.46-6.58-.64-12.68,1.81-18.6,1.63-3.94,4.79-6.31,8.11-8.31.77-2.02-.8-4.71,2.11-5.65,2.57.01,2.78,2.07,3.05,3.86h4.99c1.37-1.45.95-3.33,1.51-4.87,3.91-1.06,4.67-.01,3.44,4.94,2.99,1.15,6.21,1.04,9.24,1.82,1.23-1.35.55-3.45,2.26-4.23.8-.36,1.56-.23,2.24.32.5.67.75,1.39.52,2.24-.21.77-.53,1.53-.17,2.75,9.24,3.22,19.24,2.69,29.14,4.21.26-1.52-.55-3.25.92-4.36.73-.56,1.47-.52,2.3.09,1.25,1.68.48,3.13-1.04,4.72,2.78,1.14,5.6,1.81,8.41,3.79-.44-2.22-.35-3.89,2.05-4.21,1.09.03,1.87.64,2.32,1.68.35,1.84-.92,2.67-2.28,3.64,1.93,1.33,3.79,2.62,5.76,3.98,1.29-.83,1.97-3.21,4.2-1.79,1.59,2-.72,2.98-1.4,4.65,1.13,1.67,2.52,3.24,4.02,4.59,1.29.16,1.81-1.35,3.05-1.04ZM766.62,516.52c2.47-2.65,3.95-4.92,4.91-7.6,2.17-6.07,6.63-9.4,12.95-10.43.99-.16,2.25.11,3.18-1.15-1.53-.33-2.8-.69-4.11-.86-7.56-.96-12.96,2.46-15.31,9.69-1.02,3.17-1.37,6.45-1.62,10.35Z"/>
  <path class="cls-1" d="M345.89,360.1c.05,1.31,1.16,1.32,1.78,2.4-5.54-1.64-10.2-4.38-15.31-6.06,8.02-1.52,15.96-1.58,23.94-.74,8.48.88,16.98,1.71,25.47,2.45,3.02.26,6.08.58,9.21-.67-1.3,3.15-4.16,4.99-7.83,4.83-5.32-.23-10.64-.71-15.95-1.12-7.04-.55-14.08-1.25-21.31-1.08Z"/>
  <path class="cls-1" d="M384.9,339.74c1.32,2.65,2.43,4.89,3.65,7.33-3.4,1.86-5.04,4.81-6.02,8.66-3.43-.53-6.85-.16-10.35-1.73,3.74-5.23,7.18-10.39,12.72-14.27Z"/>
  <path class="cls-1" d="M375.94,376.75c-4.4-2.17-8.32-4.11-12.43-6.14-.47-1.97-.24-4.05-.07-6.48,3.12-.49,6.11.13,9.08.07.13,4.39,2.15,8.03,3.42,12.55Z"/>
  <path class="cls-1" d="M349.9,363.47c3.53-.21,6.94-.56,10.3.3.49,1.7.4,3.23.03,5.26-3.83-1.38-6.99-3.62-10.32-5.56Z"/>
  <path class="cls-1" d="M677.01,641.26c-6.78-2.06-12.53-6.02-18.28-10.36.73.09-.1.22.16-.25.05-.09.26-.2.32-.16,6.05,3.34,11.73,7.31,17.79,10.77Z"/>
  <path class="cls-1" d="M386.96,355.7c-.8-.59-.54-1.08-.31-1.53.18-.34.46-.63.7-.95,1.11,1.09-.29,1.66-.39,2.48Z"/>
</svg>